<svg width="400" height="150" viewBox="0 0 400 150" fill="none" xmlns="http://www.w3.org/2000/svg">
<path d="M10 0.499632L325 0.499577C366.145 0.49957 399.5 33.8543 399.5 74.9996C399.5 116.145 366.145 149.5 325 149.5L10 149.5C4.75331 149.5 0.500025 145.246 0.500024 140L0.500002 9.99963C0.500001 4.75293 4.7533 0.499633 10 0.499632Z" stroke="#999999"/>
<path d="M10 0.49951L275 0.499464C316.145 0.499456 349.5 33.8542 349.5 74.9995C349.5 116.145 316.145 149.499 275 149.499L10 149.5C4.75332 149.5 0.500025 145.246 0.500024 140L0.500002 9.99951C0.500001 4.75281 4.7533 0.499511 10 0.49951Z" stroke="black"/>
<path d="M32.375 111.181H34.3409L35.6932 114.477H35.7614L37.1136 111.181H39.0795V117H37.5341V113.636H37.4886L36.1932 116.954H35.2614L33.9659 113.613H33.9205V117H32.375V111.181ZM41.0668 117.068C40.7884 117.068 40.5421 117.022 40.3281 116.931C40.116 116.839 39.9493 116.698 39.8281 116.511C39.7069 116.323 39.6463 116.085 39.6463 115.795C39.6463 115.556 39.687 115.353 39.7685 115.184C39.8499 115.014 39.9635 114.875 40.1094 114.767C40.2552 114.659 40.4247 114.576 40.6179 114.519C40.813 114.463 41.0232 114.426 41.2486 114.409C41.4929 114.39 41.6889 114.367 41.8366 114.34C41.9863 114.312 42.0942 114.273 42.1605 114.224C42.2268 114.173 42.2599 114.106 42.2599 114.022V114.011C42.2599 113.897 42.2164 113.81 42.1293 113.75C42.0421 113.689 41.9304 113.659 41.794 113.659C41.6444 113.659 41.5223 113.692 41.4276 113.758C41.3348 113.822 41.2789 113.922 41.2599 114.056H39.8168C39.8357 113.791 39.92 113.547 40.0696 113.323C40.2211 113.098 40.4418 112.918 40.7315 112.784C41.0213 112.647 41.383 112.579 41.8168 112.579C42.1293 112.579 42.4096 112.616 42.6577 112.69C42.9058 112.762 43.117 112.863 43.2912 112.994C43.4654 113.123 43.598 113.274 43.6889 113.448C43.7817 113.621 43.8281 113.808 43.8281 114.011V117H42.3622V116.386H42.3281C42.241 116.549 42.1349 116.68 42.0099 116.781C41.8868 116.881 41.7457 116.954 41.5866 117C41.4295 117.045 41.2562 117.068 41.0668 117.068ZM41.5781 116.079C41.6974 116.079 41.8092 116.054 41.9134 116.005C42.0194 115.956 42.1056 115.885 42.1719 115.792C42.2382 115.699 42.2713 115.587 42.2713 115.454V115.09C42.2296 115.107 42.1851 115.124 42.1378 115.139C42.0923 115.154 42.0431 115.168 41.9901 115.181C41.9389 115.195 41.884 115.207 41.8253 115.218C41.7685 115.23 41.7088 115.24 41.6463 115.25C41.5251 115.268 41.4257 115.3 41.348 115.343C41.2723 115.385 41.2154 115.437 41.1776 115.5C41.1416 115.56 41.1236 115.628 41.1236 115.704C41.1236 115.825 41.1662 115.918 41.2514 115.982C41.3366 116.047 41.4455 116.079 41.5781 116.079ZM47.7592 112.636V113.806H46.0888V117H44.5774V112.636H47.7592ZM49.4418 117.068C49.1634 117.068 48.9171 117.022 48.7031 116.931C48.491 116.839 48.3243 116.698 48.2031 116.511C48.0819 116.323 48.0213 116.085 48.0213 115.795C48.0213 115.556 48.062 115.353 48.1435 115.184C48.2249 115.014 48.3385 114.875 48.4844 114.767C48.6302 114.659 48.7997 114.576 48.9929 114.519C49.188 114.463 49.3982 114.426 49.6236 114.409C49.8679 114.39 50.0639 114.367 50.2116 114.34C50.3613 114.312 50.4692 114.273 50.5355 114.224C50.6018 114.173 50.6349 114.106 50.6349 114.022V114.011C50.6349 113.897 50.5914 113.81 50.5043 113.75C50.4171 113.689 50.3054 113.659 50.169 113.659C50.0194 113.659 49.8973 113.692 49.8026 113.758C49.7098 113.822 49.6539 113.922 49.6349 114.056H48.1918C48.2107 113.791 48.295 113.547 48.4446 113.323C48.5961 113.098 48.8168 112.918 49.1065 112.784C49.3963 112.647 49.758 112.579 50.1918 112.579C50.5043 112.579 50.7846 112.616 51.0327 112.69C51.2808 112.762 51.492 112.863 51.6662 112.994C51.8404 113.123 51.973 113.274 52.0639 113.448C52.1567 113.621 52.2031 113.808 52.2031 114.011V117H50.7372V116.386H50.7031C50.616 116.549 50.5099 116.68 50.3849 116.781C50.2618 116.881 50.1207 116.954 49.9616 117C49.8045 117.045 49.6312 117.068 49.4418 117.068ZM49.9531 116.079C50.0724 116.079 50.1842 116.054 50.2884 116.005C50.3944 115.956 50.4806 115.885 50.5469 115.792C50.6132 115.699 50.6463 115.587 50.6463 115.454V115.09C50.6046 115.107 50.5601 115.124 50.5128 115.139C50.4673 115.154 50.4181 115.168 50.3651 115.181C50.3139 115.195 50.259 115.207 50.2003 115.218C50.1435 115.23 50.0838 115.24 50.0213 115.25C49.9001 115.268 49.8007 115.3 49.723 115.343C49.6473 115.385 49.5904 115.437 49.5526 115.5C49.5166 115.56 49.4986 115.628 49.4986 115.704C49.4986 115.825 49.5412 115.918 49.6264 115.982C49.7116 116.047 49.8205 116.079 49.9531 116.079ZM52.7592 115.681H54.2365C54.2365 115.791 54.2839 115.881 54.3786 115.951C54.4751 116.021 54.5982 116.056 54.7479 116.056C54.8975 116.056 55.0196 116.018 55.1143 115.94C55.2109 115.86 55.2592 115.759 55.2592 115.636C55.2592 115.558 55.2393 115.49 55.1996 115.431C55.1598 115.371 55.1049 115.323 55.0348 115.289C54.9647 115.255 54.8842 115.238 54.7933 115.238H54.2479V114.318H54.7933C54.9278 114.318 55.0367 114.285 55.12 114.221C55.2053 114.157 55.2479 114.075 55.2479 113.977C55.2479 113.863 55.2062 113.77 55.1229 113.698C55.0395 113.626 54.9335 113.59 54.8047 113.59C54.6759 113.59 54.5698 113.62 54.4865 113.678C54.4032 113.737 54.3615 113.814 54.3615 113.909H52.8842C52.8842 113.628 52.9676 113.39 53.1342 113.193C53.3009 112.994 53.5244 112.842 53.8047 112.738C54.085 112.632 54.3956 112.579 54.7365 112.579C55.1267 112.579 55.4619 112.626 55.7422 112.721C56.0225 112.816 56.2375 112.955 56.3871 113.139C56.5367 113.322 56.6115 113.549 56.6115 113.818C56.6115 114.039 56.531 114.23 56.37 114.389C56.209 114.546 55.9714 114.659 55.657 114.727V114.772C55.8445 114.782 56.0187 114.826 56.1797 114.906C56.3426 114.985 56.4742 115.099 56.5746 115.247C56.675 115.394 56.7251 115.577 56.7251 115.795C56.7251 116.068 56.6399 116.3 56.4695 116.491C56.3009 116.682 56.0679 116.828 55.7706 116.928C55.4732 117.029 55.1323 117.079 54.7479 117.079C54.3729 117.079 54.0376 117.029 53.7422 116.928C53.4467 116.826 53.2119 116.672 53.0376 116.465C52.8634 116.257 52.7706 115.996 52.7592 115.681ZM58.8125 115L60.0284 112.636H61.5057V117H60.0284V114.625L58.8125 117H57.3352V112.636H58.8125V115ZM65.4176 114.215V115.386H63.2244V114.215H65.4176ZM63.7812 112.636V117H62.304V112.636H63.7812ZM66.3381 112.636V117H64.8722V112.636H66.3381Z" fill="black"/>
<path d="M49.7614 124.049C49.5495 124.049 49.3482 124.016 49.1577 123.95C48.9683 123.882 48.8002 123.776 48.6534 123.632C48.5066 123.488 48.3912 123.299 48.3072 123.067C48.2243 122.835 48.1835 122.554 48.1847 122.224C48.1858 121.929 48.2237 121.664 48.2983 121.428C48.3741 121.193 48.4812 120.992 48.6197 120.827C48.7594 120.661 48.9263 120.534 49.1204 120.447C49.3145 120.358 49.5305 120.313 49.7685 120.313C50.036 120.313 50.2715 120.365 50.4751 120.468C50.6787 120.571 50.8409 120.709 50.9616 120.882C51.0836 121.053 51.1546 121.243 51.1747 121.45H50.2017C50.1792 121.347 50.1271 121.272 50.0455 121.224C49.965 121.176 49.8726 121.152 49.7685 121.152C49.5613 121.152 49.4092 121.241 49.3121 121.421C49.2163 121.601 49.1671 121.838 49.1648 122.132H49.1861C49.2322 122.02 49.3021 121.925 49.3956 121.846C49.4891 121.766 49.598 121.705 49.7223 121.663C49.8466 121.62 49.978 121.599 50.1165 121.599C50.3366 121.599 50.529 121.649 50.6935 121.748C50.8593 121.848 50.9883 121.984 51.0806 122.156C51.1729 122.329 51.2185 122.527 51.2173 122.75C51.2185 123.01 51.157 123.238 51.0327 123.433C50.9096 123.628 50.7385 123.78 50.5195 123.888C50.3005 123.995 50.0478 124.049 49.7614 124.049ZM49.7543 123.303C49.8525 123.303 49.9395 123.281 50.0153 123.236C50.0922 123.191 50.152 123.129 50.1946 123.051C50.2384 122.973 50.2597 122.884 50.2585 122.785C50.2597 122.684 50.2384 122.596 50.1946 122.519C50.152 122.441 50.0922 122.379 50.0153 122.334C49.9395 122.289 49.8525 122.267 49.7543 122.267C49.6821 122.267 49.6152 122.28 49.5536 122.306C49.4933 122.33 49.4406 122.367 49.3956 122.414C49.3506 122.46 49.3151 122.515 49.2891 122.579C49.2642 122.642 49.2512 122.71 49.25 122.785C49.2512 122.884 49.2737 122.973 49.3175 123.051C49.3613 123.129 49.421 123.191 49.4968 123.236C49.5726 123.281 49.6584 123.303 49.7543 123.303Z" fill="black"/>
<path d="M91.375 111.181H93.3409L94.6932 114.477H94.7614L96.1136 111.181H98.0795V117H96.5341V113.636H96.4886L95.1932 116.954H94.2614L92.9659 113.613H92.9205V117H91.375V111.181ZM100.067 117.068C99.7884 117.068 99.5421 117.022 99.3281 116.931C99.116 116.839 98.9493 116.698 98.8281 116.511C98.7069 116.323 98.6463 116.085 98.6463 115.795C98.6463 115.556 98.687 115.353 98.7685 115.184C98.8499 115.014 98.9635 114.875 99.1094 114.767C99.2552 114.659 99.4247 114.576 99.6179 114.519C99.813 114.463 100.023 114.426 100.249 114.409C100.493 114.39 100.689 114.367 100.837 114.34C100.986 114.312 101.094 114.273 101.161 114.224C101.227 114.173 101.26 114.106 101.26 114.022V114.011C101.26 113.897 101.216 113.81 101.129 113.75C101.042 113.689 100.93 113.659 100.794 113.659C100.644 113.659 100.522 113.692 100.428 113.758C100.335 113.822 100.279 113.922 100.26 114.056H98.8168C98.8357 113.791 98.92 113.547 99.0696 113.323C99.2211 113.098 99.4418 112.918 99.7315 112.784C100.021 112.647 100.383 112.579 100.817 112.579C101.129 112.579 101.41 112.616 101.658 112.69C101.906 112.762 102.117 112.863 102.291 112.994C102.465 113.123 102.598 113.274 102.689 113.448C102.782 113.621 102.828 113.808 102.828 114.011V117H101.362V116.386H101.328C101.241 116.549 101.135 116.68 101.01 116.781C100.887 116.881 100.746 116.954 100.587 117C100.429 117.045 100.256 117.068 100.067 117.068ZM100.578 116.079C100.697 116.079 100.809 116.054 100.913 116.005C101.019 115.956 101.106 115.885 101.172 115.792C101.238 115.699 101.271 115.587 101.271 115.454V115.09C101.23 115.107 101.185 115.124 101.138 115.139C101.092 115.154 101.043 115.168 100.99 115.181C100.939 115.195 100.884 115.207 100.825 115.218C100.768 115.23 100.709 115.24 100.646 115.25C100.525 115.268 100.426 115.3 100.348 115.343C100.272 115.385 100.215 115.437 100.178 115.5C100.142 115.56 100.124 115.628 100.124 115.704C100.124 115.825 100.166 115.918 100.251 115.982C100.337 116.047 100.446 116.079 100.578 116.079ZM106.759 112.636V113.806H105.089V117H103.577V112.636H106.759ZM108.442 117.068C108.163 117.068 107.917 117.022 107.703 116.931C107.491 116.839 107.324 116.698 107.203 116.511C107.082 116.323 107.021 116.085 107.021 115.795C107.021 115.556 107.062 115.353 107.143 115.184C107.225 115.014 107.339 114.875 107.484 114.767C107.63 114.659 107.8 114.576 107.993 114.519C108.188 114.463 108.398 114.426 108.624 114.409C108.868 114.39 109.064 114.367 109.212 114.34C109.361 114.312 109.469 114.273 109.536 114.224C109.602 114.173 109.635 114.106 109.635 114.022V114.011C109.635 113.897 109.591 113.81 109.504 113.75C109.417 113.689 109.305 113.659 109.169 113.659C109.019 113.659 108.897 113.692 108.803 113.758C108.71 113.822 108.654 113.922 108.635 114.056H107.192C107.211 113.791 107.295 113.547 107.445 113.323C107.596 113.098 107.817 112.918 108.107 112.784C108.396 112.647 108.758 112.579 109.192 112.579C109.504 112.579 109.785 112.616 110.033 112.69C110.281 112.762 110.492 112.863 110.666 112.994C110.84 113.123 110.973 113.274 111.064 113.448C111.157 113.621 111.203 113.808 111.203 114.011V117H109.737V116.386H109.703C109.616 116.549 109.51 116.68 109.385 116.781C109.262 116.881 109.121 116.954 108.962 117C108.804 117.045 108.631 117.068 108.442 117.068ZM108.953 116.079C109.072 116.079 109.184 116.054 109.288 116.005C109.394 115.956 109.481 115.885 109.547 115.792C109.613 115.699 109.646 115.587 109.646 115.454V115.09C109.605 115.107 109.56 115.124 109.513 115.139C109.467 115.154 109.418 115.168 109.365 115.181C109.314 115.195 109.259 115.207 109.2 115.218C109.143 115.23 109.084 115.24 109.021 115.25C108.9 115.268 108.801 115.3 108.723 115.343C108.647 115.385 108.59 115.437 108.553 115.5C108.517 115.56 108.499 115.628 108.499 115.704C108.499 115.825 108.541 115.918 108.626 115.982C108.712 116.047 108.821 116.079 108.953 116.079ZM111.759 115.681H113.237C113.237 115.791 113.284 115.881 113.379 115.951C113.475 116.021 113.598 116.056 113.748 116.056C113.897 116.056 114.02 116.018 114.114 115.94C114.211 115.86 114.259 115.759 114.259 115.636C114.259 115.558 114.239 115.49 114.2 115.431C114.16 115.371 114.105 115.323 114.035 115.289C113.965 115.255 113.884 115.238 113.793 115.238H113.248V114.318H113.793C113.928 114.318 114.037 114.285 114.12 114.221C114.205 114.157 114.248 114.075 114.248 113.977C114.248 113.863 114.206 113.77 114.123 113.698C114.04 113.626 113.933 113.59 113.805 113.59C113.676 113.59 113.57 113.62 113.487 113.678C113.403 113.737 113.362 113.814 113.362 113.909H111.884C111.884 113.628 111.968 113.39 112.134 113.193C112.301 112.994 112.524 112.842 112.805 112.738C113.085 112.632 113.396 112.579 113.737 112.579C114.127 112.579 114.462 112.626 114.742 112.721C115.022 112.816 115.237 112.955 115.387 113.139C115.537 113.322 115.612 113.549 115.612 113.818C115.612 114.039 115.531 114.23 115.37 114.389C115.209 114.546 114.971 114.659 114.657 114.727V114.772C114.844 114.782 115.019 114.826 115.18 114.906C115.343 114.985 115.474 115.099 115.575 115.247C115.675 115.394 115.725 115.577 115.725 115.795C115.725 116.068 115.64 116.3 115.469 116.491C115.301 116.682 115.068 116.828 114.771 116.928C114.473 117.029 114.132 117.079 113.748 117.079C113.373 117.079 113.038 117.029 112.742 116.928C112.447 116.826 112.212 116.672 112.038 116.465C111.863 116.257 111.771 115.996 111.759 115.681ZM117.812 115L119.028 112.636H120.506V117H119.028V114.625L117.812 117H116.335V112.636H117.812V115ZM124.418 114.215V115.386H122.224V114.215H124.418ZM122.781 112.636V117H121.304V112.636H122.781ZM125.338 112.636V117H123.872V112.636H125.338Z" fill="black"/>
<path d="M107.405 124L108.832 121.173V121.152H107.156V120.363H109.855V121.152L108.42 124H107.405Z" fill="black"/>
<rect x="152" y="31.0002" width="13" height="6" fill="#B7FFEE"/>
<path d="M159.024 32.3638L159.024 36.0002L158.037 36.0002L158.037 33.2729L158.016 33.2729L157.22 33.7487L157.22 32.9107L158.115 32.3638L159.024 32.3638Z" fill="black"/>
<path d="M239 62.9995H266.375H280.062M348.5 62.9995H321.125H307.438H300.594" stroke="black"/>
<path d="M165 0.999512V62.9995H183.5H192.75M239 0.999512V62.9995H220.5H211.25" stroke="black"/>
<path d="M79 0.999512V62.9995H93.75H101.125M138 0.999512V62.9995H123.25H115.875" stroke="black"/>
<path d="M20 0.999512V62.9995H34.75H42.125M79 0.999512V62.9995H64.25H56.875" stroke="black"/>
<path d="M138 150V87.9995H123.25H115.875M79 150V87.9995H93.75H101.125" stroke="black"/>
<path d="M79 150L79 87.9995H64.25H56.875M20 150L20 87.9995H34.75H42.125" stroke="black"/>
<path d="M240.96 115L239.176 112.647H238.955V115H237.375V109.181H238.955V111.375H239.159L240.83 109.181H242.818L240.602 111.977L242.943 115H240.96ZM244.606 115.068C244.327 115.068 244.081 115.022 243.867 114.931C243.655 114.839 243.488 114.698 243.367 114.511C243.246 114.323 243.185 114.085 243.185 113.795C243.185 113.556 243.226 113.353 243.308 113.184C243.389 113.014 243.503 112.875 243.648 112.767C243.794 112.659 243.964 112.576 244.157 112.519C244.352 112.463 244.562 112.426 244.788 112.409C245.032 112.39 245.228 112.367 245.376 112.34C245.525 112.312 245.633 112.273 245.7 112.224C245.766 112.173 245.799 112.106 245.799 112.022V112.011C245.799 111.897 245.755 111.81 245.668 111.75C245.581 111.689 245.469 111.659 245.333 111.659C245.183 111.659 245.061 111.692 244.967 111.758C244.874 111.822 244.818 111.922 244.799 112.056H243.356C243.375 111.791 243.459 111.547 243.609 111.323C243.76 111.098 243.981 110.918 244.271 110.784C244.56 110.647 244.922 110.579 245.356 110.579C245.668 110.579 245.949 110.616 246.197 110.69C246.445 110.762 246.656 110.863 246.83 110.994C247.004 111.123 247.137 111.274 247.228 111.448C247.321 111.621 247.367 111.808 247.367 112.011V115H245.901V114.386H245.867C245.78 114.549 245.674 114.68 245.549 114.781C245.426 114.881 245.285 114.954 245.126 115C244.969 115.045 244.795 115.068 244.606 115.068ZM245.117 114.079C245.237 114.079 245.348 114.054 245.452 114.005C245.558 113.956 245.645 113.885 245.711 113.792C245.777 113.699 245.81 113.587 245.81 113.454V113.09C245.769 113.107 245.724 113.124 245.677 113.139C245.631 113.154 245.582 113.168 245.529 113.181C245.478 113.195 245.423 113.207 245.364 113.218C245.308 113.23 245.248 113.24 245.185 113.25C245.064 113.268 244.965 113.3 244.887 113.343C244.811 113.385 244.754 113.437 244.717 113.5C244.681 113.56 244.663 113.628 244.663 113.704C244.663 113.825 244.705 113.918 244.79 113.982C244.876 114.047 244.985 114.079 245.117 114.079ZM247.923 113.681H249.401C249.401 113.791 249.448 113.881 249.543 113.951C249.639 114.021 249.762 114.056 249.912 114.056C250.062 114.056 250.184 114.018 250.278 113.94C250.375 113.86 250.423 113.759 250.423 113.636C250.423 113.558 250.403 113.49 250.364 113.431C250.324 113.371 250.269 113.323 250.199 113.289C250.129 113.255 250.048 113.238 249.957 113.238H249.412V112.318H249.957C250.092 112.318 250.201 112.285 250.284 112.221C250.369 112.157 250.412 112.075 250.412 111.977C250.412 111.863 250.37 111.77 250.287 111.698C250.204 111.626 250.098 111.59 249.969 111.59C249.84 111.59 249.734 111.62 249.651 111.678C249.567 111.737 249.526 111.814 249.526 111.909H248.048C248.048 111.628 248.132 111.39 248.298 111.193C248.465 110.994 248.688 110.842 248.969 110.738C249.249 110.632 249.56 110.579 249.901 110.579C250.291 110.579 250.626 110.626 250.906 110.721C251.187 110.816 251.402 110.955 251.551 111.139C251.701 111.322 251.776 111.549 251.776 111.818C251.776 112.039 251.695 112.23 251.534 112.389C251.373 112.546 251.135 112.659 250.821 112.727V112.772C251.009 112.782 251.183 112.826 251.344 112.906C251.507 112.985 251.638 113.099 251.739 113.247C251.839 113.394 251.889 113.577 251.889 113.795C251.889 114.068 251.804 114.3 251.634 114.491C251.465 114.682 251.232 114.828 250.935 114.928C250.637 115.029 250.296 115.079 249.912 115.079C249.537 115.079 249.202 115.029 248.906 114.928C248.611 114.826 248.376 114.672 248.202 114.465C248.027 114.257 247.935 113.996 247.923 113.681ZM253.977 113L255.192 110.636H256.67V115H255.192V112.625L253.977 115H252.499V110.636H253.977V113ZM260.582 112.215V113.386H258.388V112.215H260.582ZM258.945 110.636V115H257.468V110.636H258.945ZM261.502 110.636V115H260.036V110.636H261.502ZM264.352 115.079C263.878 115.079 263.473 114.985 263.136 114.798C262.799 114.608 262.54 114.345 262.36 114.008C262.18 113.669 262.09 113.276 262.09 112.829C262.09 112.382 262.18 111.99 262.36 111.653C262.54 111.314 262.799 111.051 263.136 110.863C263.473 110.674 263.878 110.579 264.352 110.579C264.825 110.579 265.23 110.674 265.567 110.863C265.905 111.051 266.163 111.314 266.343 111.653C266.523 111.99 266.613 112.382 266.613 112.829C266.613 113.276 266.523 113.669 266.343 114.008C266.163 114.345 265.905 114.608 265.567 114.798C265.23 114.985 264.825 115.079 264.352 115.079ZM264.363 113.92C264.496 113.92 264.61 113.875 264.707 113.786C264.803 113.697 264.878 113.571 264.931 113.406C264.984 113.241 265.011 113.045 265.011 112.818C265.011 112.589 264.984 112.393 264.931 112.23C264.878 112.065 264.803 111.938 264.707 111.849C264.61 111.76 264.496 111.715 264.363 111.715C264.223 111.715 264.103 111.76 264.002 111.849C263.902 111.938 263.825 112.065 263.772 112.23C263.719 112.393 263.692 112.589 263.692 112.818C263.692 113.045 263.719 113.241 263.772 113.406C263.825 113.571 263.902 113.697 264.002 113.786C264.103 113.875 264.223 113.92 264.363 113.92Z" fill="black"/>
<path d="M251.825 122.099C251.495 122.098 251.21 122.021 250.969 121.87C250.729 121.718 250.544 121.5 250.414 121.215C250.283 120.929 250.219 120.587 250.22 120.188C250.221 119.788 250.286 119.449 250.415 119.169C250.546 118.89 250.73 118.677 250.969 118.532C251.21 118.386 251.495 118.313 251.825 118.313C252.156 118.313 252.441 118.387 252.681 118.534C252.921 118.679 253.107 118.892 253.237 119.171C253.367 119.45 253.432 119.79 253.43 120.188C253.43 120.59 253.365 120.933 253.235 121.218C253.105 121.504 252.92 121.722 252.679 121.873C252.44 122.024 252.156 122.099 251.825 122.099ZM251.825 121.296C251.996 121.296 252.135 121.208 252.244 121.03C252.354 120.851 252.409 120.571 252.408 120.188C252.408 119.939 252.383 119.734 252.333 119.576C252.283 119.417 252.215 119.3 252.127 119.224C252.04 119.147 251.939 119.109 251.825 119.109C251.655 119.109 251.516 119.195 251.408 119.368C251.3 119.541 251.245 119.814 251.243 120.188C251.242 120.443 251.266 120.652 251.316 120.817C251.365 120.98 251.434 121.101 251.522 121.179C251.61 121.257 251.712 121.296 251.825 121.296Z" fill="black"/>
<path d="M189.375 31.9995V26.1813H193.466V27.4541H190.955V28.1359H191.545C192.034 28.1359 192.461 28.2145 192.827 28.3717C193.194 28.5289 193.479 28.7505 193.682 29.0364C193.886 29.3224 193.989 29.6586 193.989 30.045C193.989 30.4313 193.886 30.7713 193.682 31.0649C193.479 31.3584 193.194 31.5876 192.827 31.7524C192.461 31.9171 192.034 31.9995 191.545 31.9995H189.375ZM190.955 30.7609H191.545C191.735 30.7609 191.894 30.7296 192.023 30.6671C192.153 30.6046 192.252 30.5185 192.318 30.4086C192.386 30.2988 192.42 30.1738 192.42 30.0336C192.42 29.8347 192.346 29.67 192.196 29.5393C192.046 29.4067 191.83 29.3404 191.545 29.3404H190.955V30.7609ZM195.524 33.6359C195.344 33.6359 195.173 33.6217 195.01 33.5933C194.847 33.5667 194.704 33.5298 194.581 33.4825L194.922 32.3688C195.051 32.4143 195.168 32.4436 195.274 32.4569C195.382 32.4702 195.474 32.4626 195.55 32.4342C195.627 32.4058 195.683 32.3518 195.717 32.2722L195.751 32.1927L194.217 27.6359H195.854L196.558 30.6586H196.604L197.32 27.6359H198.967L197.376 32.3631C197.297 32.6037 197.181 32.8196 197.03 33.0109C196.88 33.2041 196.683 33.3565 196.439 33.4683C196.195 33.58 195.89 33.6359 195.524 33.6359ZM199.197 28.8063V27.6359H203.425V28.8063H202.038V31.9995H200.561V28.8063H199.197ZM205.484 29.9995L206.7 27.6359H208.178V31.9995H206.7V29.6245L205.484 31.9995H204.007V27.6359H205.484V29.9995ZM208.976 31.9995V27.6359H210.544V29.1927H210.817L211.749 27.6359H213.544L212.146 29.8404L213.555 31.9995H211.737L210.896 30.6472H210.544V31.9995H208.976Z" fill="black"/>
<path d="M201.241 38.9995V38.2893L202.598 37.1671C202.688 37.0926 202.765 37.0227 202.829 36.9576C202.894 36.8913 202.944 36.8233 202.978 36.7534C203.013 36.6836 203.031 36.606 203.031 36.5208C203.031 36.4273 203.011 36.3474 202.971 36.2811C202.932 36.2148 202.877 36.1639 202.808 36.1284C202.738 36.0917 202.657 36.0734 202.566 36.0734C202.475 36.0734 202.394 36.0917 202.325 36.1284C202.256 36.1651 202.203 36.219 202.165 36.29C202.127 36.361 202.108 36.4474 202.108 36.5492H201.17C201.17 36.2935 201.228 36.0734 201.343 35.8887C201.458 35.7041 201.62 35.562 201.829 35.4626C202.039 35.3631 202.284 35.3134 202.566 35.3134C202.857 35.3134 203.109 35.3602 203.322 35.4537C203.537 35.546 203.702 35.6762 203.818 35.8443C203.935 36.0124 203.994 36.2095 203.994 36.4356C203.994 36.5753 203.965 36.7144 203.907 36.8528C203.849 36.9902 203.744 37.1423 203.594 37.3092C203.444 37.4761 203.23 37.6749 202.953 37.9058L202.612 38.1899V38.2112H204.033V38.9995H201.241Z" fill="black"/>
<path d="M270.375 33.9995V28.1813H272.886C273.318 28.1813 273.696 28.2666 274.02 28.437C274.344 28.6075 274.596 28.847 274.776 29.1558C274.955 29.4645 275.045 29.8253 275.045 30.2381C275.045 30.6548 274.953 31.0156 274.767 31.3205C274.583 31.6255 274.325 31.8603 273.991 32.0251C273.66 32.1899 273.273 32.2722 272.83 32.2722H271.33V31.045H272.511C272.697 31.045 272.855 31.0128 272.986 30.9484C273.118 30.8821 273.22 30.7883 273.29 30.6671C273.362 30.5459 273.398 30.4029 273.398 30.2381C273.398 30.0715 273.362 29.9294 273.29 29.812C273.22 29.6927 273.118 29.6018 272.986 29.5393C272.855 29.4749 272.697 29.4427 272.511 29.4427H271.955V33.9995H270.375ZM277.645 34.0791C277.179 34.0791 276.777 33.99 276.44 33.812C276.105 33.6321 275.847 33.3745 275.665 33.0393C275.485 32.7022 275.395 32.2988 275.395 31.8291C275.395 31.3783 275.486 30.9844 275.668 30.6472C275.849 30.3101 276.106 30.0478 276.438 29.8603C276.769 29.6728 277.16 29.5791 277.611 29.5791C277.94 29.5791 278.239 29.6302 278.506 29.7325C278.773 29.8347 279.001 29.9834 279.19 30.1785C279.38 30.3717 279.526 30.6065 279.628 30.883C279.73 31.1595 279.781 31.4711 279.781 31.8177V32.1813H275.884V31.3177H278.338C278.336 31.1927 278.304 31.0828 278.241 30.9881C278.181 30.8916 278.098 30.8167 277.994 30.7637C277.892 30.7088 277.776 30.6813 277.645 30.6813C277.518 30.6813 277.402 30.7088 277.295 30.7637C277.189 30.8167 277.104 30.8906 277.04 30.9853C276.977 31.08 276.944 31.1908 276.94 31.3177V32.2495C276.94 32.3897 276.97 32.5147 277.028 32.6245C277.087 32.7344 277.171 32.8205 277.281 32.883C277.391 32.9455 277.524 32.9768 277.679 32.9768C277.787 32.9768 277.885 32.9616 277.974 32.9313C278.065 32.901 278.143 32.8575 278.207 32.8006C278.272 32.7419 278.319 32.6719 278.349 32.5904H279.781C279.732 32.8935 279.616 33.1567 279.432 33.3802C279.248 33.6018 279.005 33.7741 278.702 33.8972C278.401 34.0185 278.048 34.0791 277.645 34.0791ZM282.523 34.0791C282.05 34.0791 281.645 33.9853 281.308 33.7978C280.97 33.6084 280.712 33.3452 280.532 33.008C280.352 32.669 280.262 32.276 280.262 31.8291C280.262 31.3821 280.352 30.99 280.532 30.6529C280.712 30.3139 280.97 30.0506 281.308 29.8631C281.645 29.6738 282.05 29.5791 282.523 29.5791C282.951 29.5791 283.322 29.6567 283.634 29.812C283.949 29.9654 284.192 30.1832 284.364 30.4654C284.537 30.7457 284.624 31.0753 284.626 31.4541H283.171C283.15 31.2249 283.084 31.0506 282.972 30.9313C282.862 30.8101 282.72 30.7495 282.546 30.7495C282.41 30.7495 282.29 30.7893 282.188 30.8688C282.086 30.9465 282.006 31.0649 281.95 31.2239C281.893 31.3811 281.864 31.5791 281.864 31.8177C281.864 32.0563 281.893 32.2552 281.95 32.4143C282.006 32.5715 282.086 32.6899 282.188 32.7694C282.29 32.847 282.41 32.8859 282.546 32.8859C282.662 32.8859 282.764 32.8594 282.853 32.8063C282.942 32.7514 283.014 32.6719 283.069 32.5677C283.126 32.4616 283.16 32.3328 283.171 32.1813H284.626C284.62 32.5658 284.532 32.901 284.362 33.187C284.191 33.4711 283.95 33.6908 283.637 33.8461C283.326 34.0014 282.955 34.0791 282.523 34.0791ZM285.01 30.8063V29.6359H289.237V30.8063H287.851V33.9995H286.374V30.8063H285.01ZM291.812 34.0791C291.339 34.0791 290.934 33.9853 290.597 33.7978C290.259 33.6084 290.001 33.3452 289.821 33.008C289.641 32.669 289.551 32.276 289.551 31.8291C289.551 31.3821 289.641 30.99 289.821 30.6529C290.001 30.3139 290.259 30.0506 290.597 29.8631C290.934 29.6738 291.339 29.5791 291.812 29.5791C292.286 29.5791 292.691 29.6738 293.028 29.8631C293.366 30.0506 293.624 30.3139 293.804 30.6529C293.984 30.99 294.074 31.3821 294.074 31.8291C294.074 32.276 293.984 32.669 293.804 33.008C293.624 33.3452 293.366 33.6084 293.028 33.7978C292.691 33.9853 292.286 34.0791 291.812 34.0791ZM291.824 32.92C291.956 32.92 292.071 32.8755 292.168 32.7864C292.264 32.6974 292.339 32.5705 292.392 32.4058C292.445 32.241 292.472 32.045 292.472 31.8177C292.472 31.5885 292.445 31.3925 292.392 31.2296C292.339 31.0649 292.264 30.938 292.168 30.8489C292.071 30.7599 291.956 30.7154 291.824 30.7154C291.684 30.7154 291.563 30.7599 291.463 30.8489C291.363 30.938 291.286 31.0649 291.233 31.2296C291.18 31.3925 291.153 31.5885 291.153 31.8177C291.153 32.045 291.18 32.241 291.233 32.4058C291.286 32.5705 291.363 32.6974 291.463 32.7864C291.563 32.8755 291.684 32.92 291.824 32.92ZM294.71 35.6359V29.6359H296.267V30.3972H296.301C296.358 30.2495 296.441 30.1141 296.551 29.991C296.661 29.866 296.797 29.7666 296.96 29.6927C297.123 29.6169 297.313 29.5791 297.528 29.5791C297.816 29.5791 298.09 29.6558 298.349 29.8092C298.611 29.9626 298.823 30.2041 298.986 30.5336C299.151 30.8631 299.233 31.2912 299.233 31.8177C299.233 32.3215 299.154 32.7391 298.997 33.0705C298.842 33.402 298.634 33.6491 298.372 33.812C298.113 33.9749 297.828 34.0563 297.517 34.0563C297.312 34.0563 297.13 34.0232 296.969 33.9569C296.81 33.8887 296.673 33.7969 296.56 33.6813C296.448 33.5639 296.362 33.4313 296.301 33.2836H296.278V35.6359H294.71ZM296.244 31.8177C296.244 32.0298 296.272 32.2135 296.327 32.3688C296.384 32.5222 296.463 32.6416 296.565 32.7268C296.67 32.8101 296.794 32.8518 296.938 32.8518C297.081 32.8518 297.204 32.8111 297.304 32.7296C297.406 32.6463 297.484 32.5279 297.537 32.3745C297.592 32.2192 297.619 32.0336 297.619 31.8177C297.619 31.6018 297.592 31.4171 297.537 31.2637C297.484 31.1084 297.406 30.99 297.304 30.9086C297.204 30.8253 297.081 30.7836 296.938 30.7836C296.794 30.7836 296.67 30.8253 296.565 30.9086C296.463 30.99 296.384 31.1084 296.327 31.2637C296.272 31.4171 296.244 31.6018 296.244 31.8177ZM301.106 34.0677C300.827 34.0677 300.581 34.0222 300.367 33.9313C300.155 33.8385 299.988 33.6984 299.867 33.5109C299.746 33.3234 299.685 33.0847 299.685 32.795C299.685 32.5563 299.726 32.3527 299.808 32.1842C299.889 32.0137 300.003 31.8745 300.148 31.7666C300.294 31.6586 300.464 31.5762 300.657 31.5194C300.852 31.4626 301.062 31.4256 301.288 31.4086C301.532 31.3897 301.728 31.3669 301.876 31.3404C302.025 31.312 302.133 31.2732 302.2 31.2239C302.266 31.1728 302.299 31.1056 302.299 31.0222V31.0109C302.299 30.8972 302.255 30.8101 302.168 30.7495C302.081 30.6889 301.969 30.6586 301.833 30.6586C301.683 30.6586 301.561 30.6917 301.467 30.758C301.374 30.8224 301.318 30.9219 301.299 31.0563H299.856C299.875 30.7912 299.959 30.5469 300.109 30.3234C300.26 30.098 300.481 29.9181 300.771 29.7836C301.06 29.6472 301.422 29.5791 301.856 29.5791C302.168 29.5791 302.449 29.616 302.697 29.6899C302.945 29.7618 303.156 29.8631 303.33 29.9938C303.504 30.1226 303.637 30.2741 303.728 30.4484C303.821 30.6207 303.867 30.8082 303.867 31.0109V33.9995H302.401V33.3859H302.367C302.28 33.5488 302.174 33.6804 302.049 33.7808C301.926 33.8811 301.785 33.9541 301.626 33.9995C301.469 34.045 301.295 34.0677 301.106 34.0677ZM301.617 33.0791C301.737 33.0791 301.848 33.0544 301.952 33.0052C302.058 32.956 302.145 32.8849 302.211 32.7921C302.277 32.6993 302.31 32.5866 302.31 32.4541V32.0904C302.269 32.1075 302.224 32.1236 302.177 32.1387C302.131 32.1539 302.082 32.1681 302.029 32.1813C301.978 32.1946 301.923 32.2069 301.864 32.2183C301.808 32.2296 301.748 32.24 301.685 32.2495C301.564 32.2685 301.465 32.2997 301.387 32.3433C301.311 32.3849 301.254 32.437 301.217 32.4995C301.181 32.5601 301.163 32.6283 301.163 32.7041C301.163 32.8253 301.205 32.9181 301.29 32.9825C301.376 33.0469 301.485 33.0791 301.617 33.0791ZM307.73 31.2154V32.3859H305.537V31.2154L307.73 31.2154ZM306.094 29.6359V33.9995H304.616V29.6359H306.094ZM308.651 29.6359V33.9995H307.185V29.6359H308.651Z" fill="black"/>
<path d="M289.662 41.0492C289.375 41.0492 289.121 41.0001 288.898 40.9019C288.677 40.8024 288.503 40.6657 288.376 40.4917C288.25 40.3177 288.186 40.1176 288.185 39.8916H289.179C289.18 39.9614 289.201 40.0241 289.243 40.0798C289.286 40.1342 289.344 40.1768 289.417 40.2076C289.49 40.2384 289.574 40.2538 289.669 40.2538C289.76 40.2538 289.841 40.2378 289.911 40.2058C289.98 40.1727 290.035 40.1271 290.074 40.0691C290.113 40.0111 290.132 39.9448 290.131 39.8703C290.132 39.7969 290.109 39.7318 290.063 39.6749C290.018 39.6181 289.955 39.5737 289.873 39.5418C289.792 39.5098 289.697 39.4938 289.591 39.4938H289.222V38.812H289.591C289.689 38.812 289.776 38.796 289.85 38.7641C289.926 38.7321 289.984 38.6877 290.026 38.6309C290.069 38.5741 290.089 38.509 290.088 38.4356C290.089 38.3646 290.072 38.3018 290.037 38.2474C290.001 38.1929 289.951 38.1503 289.887 38.1195C289.825 38.0888 289.752 38.0734 289.669 38.0734C289.579 38.0734 289.499 38.0894 289.428 38.1213C289.358 38.1533 289.303 38.1977 289.262 38.2545C289.222 38.3113 289.201 38.3764 289.2 38.4498H288.256C288.257 38.2273 288.318 38.0308 288.439 37.8603C288.56 37.6899 288.727 37.5561 288.939 37.459C289.151 37.362 289.394 37.3134 289.669 37.3134C289.938 37.3134 290.175 37.359 290.381 37.4502C290.588 37.5413 290.75 37.6668 290.866 37.8266C290.983 37.9852 291.041 38.1669 291.04 38.3717C291.042 38.5753 290.972 38.7422 290.83 38.8724C290.689 39.0026 290.511 39.0795 290.294 39.1032V39.1316C290.588 39.1636 290.808 39.2535 290.956 39.4015C291.104 39.5483 291.177 39.7329 291.175 39.9555C291.176 40.1685 291.112 40.3573 290.983 40.5219C290.855 40.6864 290.677 40.8154 290.449 40.909C290.221 41.0025 289.959 41.0492 289.662 41.0492Z" fill="black"/>
<path d="M32.375 26.1813H34.3409L35.6932 29.4768H35.7614L37.1136 26.1813H39.0795V31.9995H37.5341V28.6359H37.4886L36.1932 31.9541H35.2614L33.9659 28.6131H33.9205V31.9995H32.375V26.1813ZM41.0668 32.0677C40.7884 32.0677 40.5421 32.0222 40.3281 31.9313C40.116 31.8385 39.9493 31.6984 39.8281 31.5109C39.7069 31.3234 39.6463 31.0847 39.6463 30.795C39.6463 30.5563 39.687 30.3527 39.7685 30.1842C39.8499 30.0137 39.9635 29.8745 40.1094 29.7666C40.2552 29.6586 40.4247 29.5762 40.6179 29.5194C40.813 29.4626 41.0232 29.4256 41.2486 29.4086C41.4929 29.3897 41.6889 29.3669 41.8366 29.3404C41.9863 29.312 42.0942 29.2732 42.1605 29.2239C42.2268 29.1728 42.2599 29.1056 42.2599 29.0222V29.0109C42.2599 28.8972 42.2164 28.8101 42.1293 28.7495C42.0421 28.6889 41.9304 28.6586 41.794 28.6586C41.6444 28.6586 41.5223 28.6917 41.4276 28.758C41.3348 28.8224 41.2789 28.9219 41.2599 29.0563H39.8168C39.8357 28.7912 39.92 28.5469 40.0696 28.3234C40.2211 28.098 40.4418 27.9181 40.7315 27.7836C41.0213 27.6472 41.383 27.5791 41.8168 27.5791C42.1293 27.5791 42.4096 27.616 42.6577 27.6899C42.9058 27.7618 43.117 27.8631 43.2912 27.9938C43.4654 28.1226 43.598 28.2741 43.6889 28.4484C43.7817 28.6207 43.8281 28.8082 43.8281 29.0109V31.9995H42.3622V31.3859H42.3281C42.241 31.5488 42.1349 31.6804 42.0099 31.7808C41.8868 31.8811 41.7457 31.9541 41.5866 31.9995C41.4295 32.045 41.2562 32.0677 41.0668 32.0677ZM41.5781 31.0791C41.6974 31.0791 41.8092 31.0544 41.9134 31.0052C42.0194 30.956 42.1056 30.8849 42.1719 30.7921C42.2382 30.6993 42.2713 30.5866 42.2713 30.4541V30.0904C42.2296 30.1075 42.1851 30.1236 42.1378 30.1387C42.0923 30.1539 42.0431 30.1681 41.9901 30.1813C41.9389 30.1946 41.884 30.2069 41.8253 30.2183C41.7685 30.2296 41.7088 30.24 41.6463 30.2495C41.5251 30.2685 41.4257 30.2997 41.348 30.3433C41.2723 30.3849 41.2154 30.437 41.1776 30.4995C41.1416 30.5601 41.1236 30.6283 41.1236 30.7041C41.1236 30.8253 41.1662 30.9181 41.2514 30.9825C41.3366 31.0469 41.4455 31.0791 41.5781 31.0791ZM47.7592 27.6359V28.8063H46.0888V31.9995H44.5774V27.6359H47.7592ZM49.4418 32.0677C49.1634 32.0677 48.9171 32.0222 48.7031 31.9313C48.491 31.8385 48.3243 31.6984 48.2031 31.5109C48.0819 31.3234 48.0213 31.0847 48.0213 30.795C48.0213 30.5563 48.062 30.3527 48.1435 30.1842C48.2249 30.0137 48.3385 29.8745 48.4844 29.7666C48.6302 29.6586 48.7997 29.5762 48.9929 29.5194C49.188 29.4626 49.3982 29.4256 49.6236 29.4086C49.8679 29.3897 50.0639 29.3669 50.2116 29.3404C50.3613 29.312 50.4692 29.2732 50.5355 29.2239C50.6018 29.1728 50.6349 29.1056 50.6349 29.0222V29.0109C50.6349 28.8972 50.5914 28.8101 50.5043 28.7495C50.4171 28.6889 50.3054 28.6586 50.169 28.6586C50.0194 28.6586 49.8973 28.6917 49.8026 28.758C49.7098 28.8224 49.6539 28.9219 49.6349 29.0563H48.1918C48.2107 28.7912 48.295 28.5469 48.4446 28.3234C48.5961 28.098 48.8168 27.9181 49.1065 27.7836C49.3963 27.6472 49.758 27.5791 50.1918 27.5791C50.5043 27.5791 50.7846 27.616 51.0327 27.6899C51.2808 27.7618 51.492 27.8631 51.6662 27.9938C51.8404 28.1226 51.973 28.2741 52.0639 28.4484C52.1567 28.6207 52.2031 28.8082 52.2031 29.0109V31.9995H50.7372V31.3859H50.7031C50.616 31.5488 50.5099 31.6804 50.3849 31.7808C50.2618 31.8811 50.1207 31.9541 49.9616 31.9995C49.8045 32.045 49.6312 32.0677 49.4418 32.0677ZM49.9531 31.0791C50.0724 31.0791 50.1842 31.0544 50.2884 31.0052C50.3944 30.956 50.4806 30.8849 50.5469 30.7921C50.6132 30.6993 50.6463 30.5866 50.6463 30.4541V30.0904C50.6046 30.1075 50.5601 30.1236 50.5128 30.1387C50.4673 30.1539 50.4181 30.1681 50.3651 30.1813C50.3139 30.1946 50.259 30.2069 50.2003 30.2183C50.1435 30.2296 50.0838 30.24 50.0213 30.2495C49.9001 30.2685 49.8007 30.2997 49.723 30.3433C49.6473 30.3849 49.5904 30.437 49.5526 30.4995C49.5166 30.5601 49.4986 30.6283 49.4986 30.7041C49.4986 30.8253 49.5412 30.9181 49.6264 30.9825C49.7116 31.0469 49.8205 31.0791 49.9531 31.0791ZM52.7592 30.6813H54.2365C54.2365 30.7912 54.2839 30.8811 54.3786 30.9512C54.4751 31.0213 54.5982 31.0563 54.7479 31.0563C54.8975 31.0563 55.0196 31.0175 55.1143 30.9399C55.2109 30.8603 55.2592 30.759 55.2592 30.6359C55.2592 30.5582 55.2393 30.49 55.1996 30.4313C55.1598 30.3707 55.1049 30.3234 55.0348 30.2893C54.9647 30.2552 54.8842 30.2381 54.7933 30.2381H54.2479V29.3177H54.7933C54.9278 29.3177 55.0367 29.2855 55.12 29.2211C55.2053 29.1567 55.2479 29.0753 55.2479 28.9768C55.2479 28.8631 55.2062 28.7703 55.1229 28.6984C55.0395 28.6264 54.9335 28.5904 54.8047 28.5904C54.6759 28.5904 54.5698 28.6198 54.4865 28.6785C54.4032 28.7372 54.3615 28.8139 54.3615 28.9086H52.8842C52.8842 28.6283 52.9676 28.3897 53.1342 28.1927C53.3009 27.9938 53.5244 27.8423 53.8047 27.7381C54.085 27.6321 54.3956 27.5791 54.7365 27.5791C55.1267 27.5791 55.4619 27.6264 55.7422 27.7211C56.0225 27.8158 56.2375 27.955 56.3871 28.1387C56.5367 28.3224 56.6115 28.5488 56.6115 28.8177C56.6115 29.0393 56.531 29.2296 56.37 29.3887C56.209 29.5459 55.9714 29.6586 55.657 29.7268V29.7722C55.8445 29.7817 56.0187 29.8262 56.1797 29.9058C56.3426 29.9853 56.4742 30.0989 56.5746 30.2467C56.675 30.3944 56.7251 30.5772 56.7251 30.795C56.7251 31.0677 56.6399 31.2997 56.4695 31.491C56.3009 31.6823 56.0679 31.8281 55.7706 31.9285C55.4732 32.0289 55.1323 32.0791 54.7479 32.0791C54.3729 32.0791 54.0376 32.0289 53.7422 31.9285C53.4467 31.8262 53.2119 31.6719 53.0376 31.4654C52.8634 31.2571 52.7706 30.9957 52.7592 30.6813ZM58.8125 29.9995L60.0284 27.6359H61.5057V31.9995H60.0284V29.6245L58.8125 31.9995H57.3352V27.6359H58.8125V29.9995ZM65.4176 29.2154V30.3859H63.2244V29.2154H65.4176ZM63.7812 27.6359V31.9995H62.304V27.6359H63.7812ZM66.3381 27.6359V31.9995H64.8722V27.6359H66.3381Z" fill="black"/>
<path d="M49.6974 39.0492C49.4181 39.0492 49.1701 39.0001 48.9535 38.9019C48.738 38.8024 48.5682 38.6657 48.4439 38.4917C48.3208 38.3177 48.258 38.1176 48.2557 37.8916H49.2145C49.218 38.017 49.2666 38.1171 49.3601 38.1916C49.4548 38.2662 49.5672 38.3035 49.6974 38.3035C49.7981 38.3035 49.8868 38.2822 49.9638 38.2396C50.0407 38.1958 50.1011 38.1342 50.1449 38.0549C50.1887 37.9756 50.21 37.8833 50.2088 37.7779C50.21 37.6714 50.1887 37.5791 50.1449 37.5009C50.1011 37.4216 50.0407 37.3607 49.9638 37.318C49.8868 37.2743 49.7981 37.2524 49.6974 37.2524C49.5933 37.2524 49.4968 37.2778 49.408 37.3287C49.3204 37.3784 49.2559 37.4477 49.2145 37.5364L48.348 37.366L48.4901 35.3631H50.9332V36.1515H49.2997L49.2287 36.9541H49.25C49.3068 36.844 49.4051 36.7528 49.5447 36.6806C49.6844 36.6072 49.8466 36.5705 50.0312 36.5705C50.2479 36.5705 50.4408 36.6208 50.6101 36.7215C50.7805 36.8221 50.9149 36.9612 51.0131 37.1387C51.1126 37.3151 51.1617 37.5187 51.1605 37.7495C51.1617 38.0028 51.1013 38.2277 50.9794 38.4242C50.8587 38.6195 50.6888 38.7728 50.4698 38.8841C50.2508 38.9942 49.9934 39.0492 49.6974 39.0492Z" fill="black"/>
<path d="M91.375 26.1813H93.3409L94.6932 29.4768H94.7614L96.1136 26.1813H98.0795V31.9995H96.5341V28.6359H96.4886L95.1932 31.9541H94.2614L92.9659 28.6131H92.9205V31.9995H91.375V26.1813ZM100.067 32.0677C99.7884 32.0677 99.5421 32.0222 99.3281 31.9313C99.116 31.8385 98.9493 31.6984 98.8281 31.5109C98.7069 31.3234 98.6463 31.0847 98.6463 30.795C98.6463 30.5563 98.687 30.3527 98.7685 30.1842C98.8499 30.0137 98.9635 29.8745 99.1094 29.7666C99.2552 29.6586 99.4247 29.5762 99.6179 29.5194C99.813 29.4626 100.023 29.4256 100.249 29.4086C100.493 29.3897 100.689 29.3669 100.837 29.3404C100.986 29.312 101.094 29.2732 101.161 29.2239C101.227 29.1728 101.26 29.1056 101.26 29.0222V29.0109C101.26 28.8972 101.216 28.8101 101.129 28.7495C101.042 28.6889 100.93 28.6586 100.794 28.6586C100.644 28.6586 100.522 28.6917 100.428 28.758C100.335 28.8224 100.279 28.9219 100.26 29.0563H98.8168C98.8357 28.7912 98.92 28.5469 99.0696 28.3234C99.2211 28.098 99.4418 27.9181 99.7315 27.7836C100.021 27.6472 100.383 27.5791 100.817 27.5791C101.129 27.5791 101.41 27.616 101.658 27.6899C101.906 27.7618 102.117 27.8631 102.291 27.9938C102.465 28.1226 102.598 28.2741 102.689 28.4484C102.782 28.6207 102.828 28.8082 102.828 29.0109V31.9995H101.362V31.3859H101.328C101.241 31.5488 101.135 31.6804 101.01 31.7808C100.887 31.8811 100.746 31.9541 100.587 31.9995C100.429 32.045 100.256 32.0677 100.067 32.0677ZM100.578 31.0791C100.697 31.0791 100.809 31.0544 100.913 31.0052C101.019 30.956 101.106 30.8849 101.172 30.7921C101.238 30.6993 101.271 30.5866 101.271 30.4541V30.0904C101.23 30.1075 101.185 30.1236 101.138 30.1387C101.092 30.1539 101.043 30.1681 100.99 30.1813C100.939 30.1946 100.884 30.2069 100.825 30.2183C100.768 30.2296 100.709 30.24 100.646 30.2495C100.525 30.2685 100.426 30.2997 100.348 30.3433C100.272 30.3849 100.215 30.437 100.178 30.4995C100.142 30.5601 100.124 30.6283 100.124 30.7041C100.124 30.8253 100.166 30.9181 100.251 30.9825C100.337 31.0469 100.446 31.0791 100.578 31.0791ZM106.759 27.6359V28.8063H105.089V31.9995H103.577V27.6359H106.759ZM108.442 32.0677C108.163 32.0677 107.917 32.0222 107.703 31.9313C107.491 31.8385 107.324 31.6984 107.203 31.5109C107.082 31.3234 107.021 31.0847 107.021 30.795C107.021 30.5563 107.062 30.3527 107.143 30.1842C107.225 30.0137 107.339 29.8745 107.484 29.7666C107.63 29.6586 107.8 29.5762 107.993 29.5194C108.188 29.4626 108.398 29.4256 108.624 29.4086C108.868 29.3897 109.064 29.3669 109.212 29.3404C109.361 29.312 109.469 29.2732 109.536 29.2239C109.602 29.1728 109.635 29.1056 109.635 29.0222V29.0109C109.635 28.8972 109.591 28.8101 109.504 28.7495C109.417 28.6889 109.305 28.6586 109.169 28.6586C109.019 28.6586 108.897 28.6917 108.803 28.758C108.71 28.8224 108.654 28.9219 108.635 29.0563H107.192C107.211 28.7912 107.295 28.5469 107.445 28.3234C107.596 28.098 107.817 27.9181 108.107 27.7836C108.396 27.6472 108.758 27.5791 109.192 27.5791C109.504 27.5791 109.785 27.616 110.033 27.6899C110.281 27.7618 110.492 27.8631 110.666 27.9938C110.84 28.1226 110.973 28.2741 111.064 28.4484C111.157 28.6207 111.203 28.8082 111.203 29.0109V31.9995H109.737V31.3859H109.703C109.616 31.5488 109.51 31.6804 109.385 31.7808C109.262 31.8811 109.121 31.9541 108.962 31.9995C108.804 32.045 108.631 32.0677 108.442 32.0677ZM108.953 31.0791C109.072 31.0791 109.184 31.0544 109.288 31.0052C109.394 30.956 109.481 30.8849 109.547 30.7921C109.613 30.6993 109.646 30.5866 109.646 30.4541V30.0904C109.605 30.1075 109.56 30.1236 109.513 30.1387C109.467 30.1539 109.418 30.1681 109.365 30.1813C109.314 30.1946 109.259 30.2069 109.2 30.2183C109.143 30.2296 109.084 30.24 109.021 30.2495C108.9 30.2685 108.801 30.2997 108.723 30.3433C108.647 30.3849 108.59 30.437 108.553 30.4995C108.517 30.5601 108.499 30.6283 108.499 30.7041C108.499 30.8253 108.541 30.9181 108.626 30.9825C108.712 31.0469 108.821 31.0791 108.953 31.0791ZM111.759 30.6813H113.237C113.237 30.7912 113.284 30.8811 113.379 30.9512C113.475 31.0213 113.598 31.0563 113.748 31.0563C113.897 31.0563 114.02 31.0175 114.114 30.9399C114.211 30.8603 114.259 30.759 114.259 30.6359C114.259 30.5582 114.239 30.49 114.2 30.4313C114.16 30.3707 114.105 30.3234 114.035 30.2893C113.965 30.2552 113.884 30.2381 113.793 30.2381H113.248V29.3177H113.793C113.928 29.3177 114.037 29.2855 114.12 29.2211C114.205 29.1567 114.248 29.0753 114.248 28.9768C114.248 28.8631 114.206 28.7703 114.123 28.6984C114.04 28.6264 113.933 28.5904 113.805 28.5904C113.676 28.5904 113.57 28.6198 113.487 28.6785C113.403 28.7372 113.362 28.8139 113.362 28.9086H111.884C111.884 28.6283 111.968 28.3897 112.134 28.1927C112.301 27.9938 112.524 27.8423 112.805 27.7381C113.085 27.6321 113.396 27.5791 113.737 27.5791C114.127 27.5791 114.462 27.6264 114.742 27.7211C115.022 27.8158 115.237 27.955 115.387 28.1387C115.537 28.3224 115.612 28.5488 115.612 28.8177C115.612 29.0393 115.531 29.2296 115.37 29.3887C115.209 29.5459 114.971 29.6586 114.657 29.7268V29.7722C114.844 29.7817 115.019 29.8262 115.18 29.9058C115.343 29.9853 115.474 30.0989 115.575 30.2467C115.675 30.3944 115.725 30.5772 115.725 30.795C115.725 31.0677 115.64 31.2997 115.469 31.491C115.301 31.6823 115.068 31.8281 114.771 31.9285C114.473 32.0289 114.132 32.0791 113.748 32.0791C113.373 32.0791 113.038 32.0289 112.742 31.9285C112.447 31.8262 112.212 31.6719 112.038 31.4654C111.863 31.2571 111.771 30.9957 111.759 30.6813ZM117.812 29.9995L119.028 27.6359H120.506V31.9995H119.028V29.6245L117.812 31.9995H116.335V27.6359H117.812V29.9995ZM124.418 29.2154V30.3859H122.224V29.2154H124.418ZM122.781 27.6359V31.9995H121.304V27.6359H122.781ZM125.338 27.6359V31.9995H123.872V27.6359H125.338Z" fill="black"/>
<path d="M107.206 38.4313V37.6643L108.669 35.3631H109.365V36.3859H108.967L108.179 37.6359V37.6643H110.338V38.4313H107.206ZM108.974 38.9995V38.197L108.996 37.8631V35.3631H109.919V38.9995H108.974Z" fill="black"/>
<rect x="153" y="87.9995" width="12" height="12" fill="#E5CC93"/>
<rect x="153" y="87.9995" width="12" height="12" fill="#E5CC93"/>
<line x1="155.1" y1="87.9995" x2="155.1" y2="99.9995" stroke="black" stroke-width="0.2"/>
<line x1="154.1" y1="87.9995" x2="154.1" y2="99.9995" stroke="black" stroke-width="0.2"/>
<line x1="156.1" y1="87.9995" x2="156.1" y2="99.9995" stroke="black" stroke-width="0.2"/>
<line x1="161.1" y1="87.9995" x2="161.1" y2="99.9995" stroke="black" stroke-width="0.2"/>
<line x1="159.1" y1="87.9995" x2="159.1" y2="99.9995" stroke="black" stroke-width="0.2"/>
<line x1="158.1" y1="87.9995" x2="158.1" y2="99.9995" stroke="black" stroke-width="0.2"/>
<line x1="157.1" y1="87.9995" x2="157.1" y2="99.9995" stroke="black" stroke-width="0.2"/>
<line x1="153" y1="90.8995" x2="161" y2="90.8995" stroke="black" stroke-width="0.2"/>
<line x1="153" y1="95.8995" x2="161" y2="95.8995" stroke="black" stroke-width="0.2"/>
<path d="M164.636 93.0236H161V92.0364H163.727V92.0151L163.251 91.2196H164.089L164.636 92.1145V93.0236ZM164.636 95.5529H161V94.5657H163.727V94.5444L163.251 93.7489H164.089L164.636 94.6438V95.5529Z" fill="black"/>
<rect x="165" y="137" width="12.0005" height="12" transform="rotate(90 165 137)" fill="#E5CC93"/>
<rect x="165" y="137" width="12.0005" height="12" transform="rotate(90 165 137)" fill="#E5CC93"/>
<line x1="165" y1="139.1" x2="153" y2="139.1" stroke="black" stroke-width="0.2"/>
<line x1="165" y1="138.1" x2="153" y2="138.1" stroke="black" stroke-width="0.2"/>
<line x1="165" y1="140.1" x2="153" y2="140.1" stroke="black" stroke-width="0.2"/>
<line x1="165" y1="145.1" x2="153" y2="145.1" stroke="black" stroke-width="0.2"/>
<line x1="165" y1="143.1" x2="153" y2="143.1" stroke="black" stroke-width="0.2"/>
<line x1="165" y1="142.1" x2="153" y2="142.1" stroke="black" stroke-width="0.2"/>
<line x1="165" y1="141.1" x2="153" y2="141.1" stroke="black" stroke-width="0.2"/>
<line x1="162.1" y1="137" x2="162.1" y2="145" stroke="black" stroke-width="0.2"/>
<line x1="157.1" y1="137" x2="157.1" y2="145" stroke="black" stroke-width="0.2"/>
<path d="M158.024 145.364L158.024 149L157.037 149L157.037 146.273L157.016 146.273L156.22 146.749L156.22 145.911L157.115 145.364L158.024 145.364ZM158.771 149L158.771 148.29L160.127 147.168C160.217 147.093 160.294 147.024 160.358 146.958C160.423 146.892 160.473 146.824 160.507 146.754C160.543 146.684 160.561 146.607 160.561 146.522C160.561 146.428 160.54 146.348 160.5 146.282C160.461 146.216 160.407 146.165 160.337 146.129C160.267 146.093 160.186 146.074 160.095 146.074C160.004 146.074 159.924 146.093 159.854 146.129C159.785 146.166 159.732 146.22 159.694 146.291C159.656 146.362 159.637 146.448 159.637 146.55L158.7 146.55C158.7 146.294 158.757 146.074 158.872 145.89C158.987 145.705 159.149 145.563 159.358 145.463C159.568 145.364 159.814 145.314 160.095 145.314C160.387 145.314 160.639 145.361 160.852 145.454C161.066 145.547 161.231 145.677 161.347 145.845C161.464 146.013 161.523 146.21 161.523 146.436C161.523 146.576 161.494 146.715 161.436 146.854C161.378 146.991 161.274 147.143 161.123 147.31C160.973 147.477 160.759 147.676 160.482 147.907L160.142 148.191L160.142 148.212L161.562 148.212L161.562 149L158.771 149Z" fill="black"/>
<path d="M18.5252 10.1071H11V12.1678H18.5252V10.1071Z" fill="#E5CC93" stroke="#939598" stroke-width="0.654732"/>
<path d="M18.5252 12.1679H11V14.2286H18.5252V12.1679Z" fill="#E5CC93" stroke="#939598" stroke-width="0.654732"/>
<path d="M18.5252 14.2286H11V16.2894H18.5252V14.2286Z" fill="#E5CC93" stroke="#939598" stroke-width="0.654732"/>
<path d="M18.5252 16.2915H11V18.3523H18.5252V16.2915Z" fill="#E5CC93" stroke="#939598" stroke-width="0.654732"/>
<path d="M18.5252 18.3523H11V20.4109H18.5252V18.3523Z" fill="#E5CC93" stroke="#939598" stroke-width="0.654732"/>
<path d="M18.5252 20.4109H11V22.4759H18.5252V20.4109Z" fill="#E5CC93" stroke="#939598" stroke-width="0.654732"/>
<path d="M18.5252 1.99945H11V4.06021H18.5252V1.99945Z" fill="#E5CC93" stroke="#939598" stroke-width="0.654732"/>
<path d="M18.5252 4.06024H11V10.1372H18.5252V4.06024Z" fill="#E5CC93" stroke="#939598" stroke-width="0.654732"/>
<path d="M14.0241 5.36309V8.99945H13.0369V6.27218H13.0156L12.2202 6.74803V5.90996L13.1151 5.36309H14.0241ZM16.1912 9.04917C15.9048 9.04917 15.6503 9.00004 15.4277 8.90179C15.2064 8.80236 15.0324 8.66564 14.9057 8.49164C14.7791 8.31763 14.7151 8.11759 14.714 7.8915H15.7083C15.7095 7.96134 15.7308 8.02407 15.7722 8.07971C15.8148 8.13416 15.8728 8.17677 15.9462 8.20755C16.0196 8.23832 16.1036 8.25371 16.1983 8.25371C16.2895 8.25371 16.37 8.23773 16.4398 8.20577C16.5096 8.17263 16.5641 8.12705 16.6032 8.06905C16.6422 8.01105 16.6612 7.94476 16.66 7.87019C16.6612 7.7968 16.6387 7.73169 16.5925 7.67488C16.5475 7.61806 16.4842 7.57367 16.4025 7.54171C16.3208 7.50975 16.2267 7.49377 16.1202 7.49377H15.7509V6.81195H16.1202C16.2185 6.81195 16.3049 6.79597 16.3794 6.76401C16.4552 6.73205 16.5138 6.68766 16.5552 6.63084C16.5978 6.57402 16.6185 6.50892 16.6174 6.43553C16.6185 6.36451 16.6014 6.30177 16.5659 6.24732C16.5304 6.19287 16.4806 6.15026 16.4167 6.11948C16.354 6.0887 16.2812 6.07331 16.1983 6.07331C16.1084 6.07331 16.0279 6.08929 15.9569 6.12125C15.887 6.15321 15.832 6.1976 15.7917 6.25442C15.7515 6.31124 15.7308 6.37634 15.7296 6.44973H14.785C14.7862 6.2272 14.8471 6.0307 14.9679 5.86025C15.0898 5.68979 15.2567 5.55603 15.4686 5.45897C15.6805 5.3619 15.9237 5.31337 16.1983 5.31337C16.467 5.31337 16.7044 5.35894 16.9103 5.45009C17.1175 5.54124 17.2791 5.66671 17.3951 5.82651C17.5123 5.98513 17.5703 6.16683 17.5691 6.37161C17.5714 6.57521 17.5016 6.74211 17.3596 6.87232C17.2187 7.00253 17.04 7.07947 16.8233 7.10314V7.13155C17.1169 7.16351 17.3377 7.25348 17.4856 7.40144C17.6336 7.54822 17.7064 7.73288 17.704 7.95542C17.7052 8.16848 17.6413 8.35729 17.5123 8.52182C17.3844 8.68636 17.2063 8.81538 16.9778 8.9089C16.7505 9.00241 16.4883 9.04917 16.1912 9.04917Z" fill="black"/>
<path d="M18.5252 140.368H11V138.308H18.5252V140.368Z" fill="#E5CC93" stroke="#939598" stroke-width="0.654732"/>
<path d="M18.5252 138.307H11V136.247H18.5252V138.307Z" fill="#E5CC93" stroke="#939598" stroke-width="0.654732"/>
<path d="M18.5252 136.247H11V134.186H18.5252V136.247Z" fill="#E5CC93" stroke="#939598" stroke-width="0.654732"/>
<path d="M18.5252 134.184H11V132.123H18.5252V134.184Z" fill="#E5CC93" stroke="#939598" stroke-width="0.654732"/>
<path d="M18.5252 132.123H11V130.065H18.5252V132.123Z" fill="#E5CC93" stroke="#939598" stroke-width="0.654732"/>
<path d="M18.5252 130.065H11V127.999H18.5252V130.065Z" fill="#E5CC93" stroke="#939598" stroke-width="0.654732"/>
<path d="M18.5252 148.476H11V146.415H18.5252V148.476Z" fill="#E5CC93" stroke="#939598" stroke-width="0.654732"/>
<path d="M18.5252 146.415H11V140.338H18.5252V146.415Z" fill="#E5CC93" stroke="#939598" stroke-width="0.654732"/>
<path d="M14.0241 141.363V144.999H13.0369V142.272H13.0156L12.2202 142.748V141.91L13.1151 141.363H14.0241ZM14.7353 144.431V143.664L16.1983 141.363H16.8944V142.386H16.4966L15.7083 143.636V143.664H17.8674V144.431H14.7353ZM16.5037 144.999V144.197L16.525 143.863V141.363H17.4483V144.999H16.5037Z" fill="black"/>
<path d="M349 79.9995H257M165 150V132.5V123.75M234 79.9995H211H165V97.4995V106.25" stroke="black"/>
</svg>