<svg width="400" height="150" viewBox="0 0 400 150" fill="none" xmlns="http://www.w3.org/2000/svg">
<path d="M0.500002 9.99945C0.500001 4.75275 4.7533 0.49945 10 0.499449L325 0.499394C366.145 0.499387 399.5 33.8542 399.5 74.9994C399.5 116.145 366.145 149.499 325 149.499L10 149.499C4.75331 149.499 0.500025 145.246 0.500024 139.999L0.500002 9.99945Z" stroke="#999999"/>
<path d="M0.500002 9.99945C0.500001 4.75275 4.7533 0.49945 10 0.499449L275 0.499403C316.145 0.499395 349.5 33.8542 349.5 74.9994C349.5 116.145 316.145 149.499 275 149.499L10 149.499C4.75332 149.499 0.500025 145.246 0.500024 139.999L0.500002 9.99945Z" stroke="#999999"/>
<path d="M0.500002 9.99951C0.500001 4.75281 4.7533 0.499511 10 0.49951L265 0.499465C306.145 0.499458 339.5 33.8542 339.5 74.9995C339.5 116.145 306.145 149.499 265 149.499L10 149.5C4.75333 149.5 0.500025 145.246 0.500024 140L0.500002 9.99951Z" stroke="black"/>
<rect x="165" y="137" width="12" height="12" transform="rotate(90 165 137)" fill="#E5CC93"/>
<rect x="165" y="137" width="12" height="12" transform="rotate(90 165 137)" fill="#E5CC93"/>
<line x1="165" y1="139.1" x2="153" y2="139.1" stroke="black" stroke-width="0.2"/>
<line x1="165" y1="138.1" x2="153" y2="138.1" stroke="black" stroke-width="0.2"/>
<line x1="165" y1="140.1" x2="153" y2="140.1" stroke="black" stroke-width="0.2"/>
<line x1="165" y1="145.1" x2="153" y2="145.1" stroke="black" stroke-width="0.2"/>
<line x1="165" y1="143.1" x2="153" y2="143.1" stroke="black" stroke-width="0.2"/>
<line x1="165" y1="142.1" x2="153" y2="142.1" stroke="black" stroke-width="0.2"/>
<line x1="165" y1="141.1" x2="153" y2="141.1" stroke="black" stroke-width="0.2"/>
<line x1="162.1" y1="137" x2="162.1" y2="145" stroke="black" stroke-width="0.2"/>
<line x1="157.1" y1="137" x2="157.1" y2="145" stroke="black" stroke-width="0.2"/>
<path d="M159.024 145.364V149H158.037V146.273H158.016L157.22 146.749V145.911L158.115 145.364H159.024ZM161.553 145.364V149H160.566V146.273H160.545L159.749 146.749V145.911L160.644 145.364H161.553Z" fill="black"/>
<path d="M18.5252 10.1071H11V12.1678H18.5252V10.1071Z" fill="#E5CC93" stroke="#939598" stroke-width="0.654732"/>
<path d="M18.5252 12.1678H11V14.2286H18.5252V12.1678Z" fill="#E5CC93" stroke="#939598" stroke-width="0.654732"/>
<path d="M18.5252 14.2286H11V16.2894H18.5252V14.2286Z" fill="#E5CC93" stroke="#939598" stroke-width="0.654732"/>
<path d="M18.5252 16.2915H11V18.3523H18.5252V16.2915Z" fill="#E5CC93" stroke="#939598" stroke-width="0.654732"/>
<path d="M18.5252 18.3523H11V20.4109H18.5252V18.3523Z" fill="#E5CC93" stroke="#939598" stroke-width="0.654732"/>
<path d="M18.5252 20.4109H11V22.4759H18.5252V20.4109Z" fill="#E5CC93" stroke="#939598" stroke-width="0.654732"/>
<path d="M18.5252 1.99945H11V4.06021H18.5252V1.99945Z" fill="#E5CC93" stroke="#939598" stroke-width="0.654732"/>
<path d="M18.5252 4.06024H11V10.1372H18.5252V4.06024Z" fill="#E5CC93" stroke="#939598" stroke-width="0.654732"/>
<path d="M14.0241 5.36309V8.99945H13.0369V6.27218H13.0156L12.2202 6.74803V5.90996L13.1151 5.36309H14.0241ZM14.7708 8.99945V8.28922L16.1273 7.16706C16.2173 7.09249 16.2942 7.02265 16.3581 6.95755C16.4232 6.89126 16.473 6.8232 16.5073 6.75336C16.5428 6.68352 16.5605 6.60598 16.5605 6.52076C16.5605 6.42724 16.5404 6.34734 16.5002 6.28106C16.4611 6.21477 16.4067 6.16387 16.3368 6.12836C16.267 6.09166 16.1865 6.07331 16.0953 6.07331C16.0042 6.07331 15.9237 6.09166 15.8539 6.12836C15.7852 6.16505 15.7319 6.21891 15.6941 6.28993C15.6562 6.36096 15.6373 6.44737 15.6373 6.54917H14.6998C14.6998 6.29348 14.7572 6.07331 14.872 5.88866C14.9868 5.704 15.149 5.56195 15.3585 5.46252C15.568 5.36309 15.8136 5.31337 16.0953 5.31337C16.3865 5.31337 16.6387 5.36013 16.8517 5.45364C17.066 5.54597 17.2311 5.67618 17.3471 5.84427C17.4643 6.01235 17.5229 6.20944 17.5229 6.43553C17.5229 6.57521 17.4939 6.71429 17.4359 6.85279C17.3779 6.9901 17.2737 7.14221 17.1234 7.30911C16.9731 7.47601 16.7594 7.67488 16.4824 7.9057L16.1415 8.18979V8.2111H17.562V8.99945H14.7708Z" fill="black"/>
<path d="M18.5252 140.368H11V138.308H18.5252V140.368Z" fill="#E5CC93" stroke="#939598" stroke-width="0.654732"/>
<path d="M18.5252 138.307H11V136.247H18.5252V138.307Z" fill="#E5CC93" stroke="#939598" stroke-width="0.654732"/>
<path d="M18.5252 136.247H11V134.186H18.5252V136.247Z" fill="#E5CC93" stroke="#939598" stroke-width="0.654732"/>
<path d="M18.5252 134.184H11V132.123H18.5252V134.184Z" fill="#E5CC93" stroke="#939598" stroke-width="0.654732"/>
<path d="M18.5252 132.123H11V130.065H18.5252V132.123Z" fill="#E5CC93" stroke="#939598" stroke-width="0.654732"/>
<path d="M18.5252 130.065H11V127.999H18.5252V130.065Z" fill="#E5CC93" stroke="#939598" stroke-width="0.654732"/>
<path d="M18.5252 148.476H11V146.415H18.5252V148.476Z" fill="#E5CC93" stroke="#939598" stroke-width="0.654732"/>
<path d="M18.5252 146.415H11V140.338H18.5252V146.415Z" fill="#E5CC93" stroke="#939598" stroke-width="0.654732"/>
<path d="M14.0241 141.363V144.999H13.0369V142.272H13.0156L12.2202 142.748V141.91L13.1151 141.363H14.0241ZM16.1912 145.049C15.9048 145.049 15.6503 145 15.4277 144.902C15.2064 144.802 15.0324 144.666 14.9057 144.492C14.7791 144.318 14.7151 144.118 14.714 143.891H15.7083C15.7095 143.961 15.7308 144.024 15.7722 144.08C15.8148 144.134 15.8728 144.177 15.9462 144.208C16.0196 144.238 16.1036 144.254 16.1983 144.254C16.2895 144.254 16.37 144.238 16.4398 144.206C16.5096 144.173 16.5641 144.127 16.6032 144.069C16.6422 144.011 16.6612 143.945 16.66 143.87C16.6612 143.797 16.6387 143.732 16.5925 143.675C16.5475 143.618 16.4842 143.574 16.4025 143.542C16.3208 143.51 16.2267 143.494 16.1202 143.494H15.7509V142.812H16.1202C16.2185 142.812 16.3049 142.796 16.3794 142.764C16.4552 142.732 16.5138 142.688 16.5552 142.631C16.5978 142.574 16.6185 142.509 16.6174 142.436C16.6185 142.365 16.6014 142.302 16.5659 142.247C16.5304 142.193 16.4806 142.15 16.4167 142.119C16.354 142.089 16.2812 142.073 16.1983 142.073C16.1084 142.073 16.0279 142.089 15.9569 142.121C15.887 142.153 15.832 142.198 15.7917 142.254C15.7515 142.311 15.7308 142.376 15.7296 142.45H14.785C14.7862 142.227 14.8471 142.031 14.9679 141.86C15.0898 141.69 15.2567 141.556 15.4686 141.459C15.6805 141.362 15.9237 141.313 16.1983 141.313C16.467 141.313 16.7044 141.359 16.9103 141.45C17.1175 141.541 17.2791 141.667 17.3951 141.827C17.5123 141.985 17.5703 142.167 17.5691 142.372C17.5714 142.575 17.5016 142.742 17.3596 142.872C17.2187 143.003 17.04 143.079 16.8233 143.103V143.132C17.1169 143.164 17.3377 143.253 17.4856 143.401C17.6336 143.548 17.7064 143.733 17.704 143.955C17.7052 144.168 17.6413 144.357 17.5123 144.522C17.3844 144.686 17.2063 144.815 16.9778 144.909C16.7505 145.002 16.4883 145.049 16.1912 145.049Z" fill="black"/>
<rect x="152" y="31.0002" width="13" height="6" fill="#B7FFEE"/>
<path d="M159.024 32.3638L159.024 36.0002L158.037 36.0002L158.037 33.2729L158.016 33.2729L157.22 33.7488L157.22 32.9107L158.115 32.3638L159.024 32.3638Z" fill="black"/>
<path d="M53.0241 123.363L53.0241 126.999L52.0369 126.999L52.0369 124.272L52.0156 124.272L51.2202 124.748L51.2202 123.91L52.1151 123.363L53.0241 123.363ZM55.3546 127.099C55.0243 127.098 54.7391 127.021 54.4988 126.87C54.2585 126.718 54.0732 126.5 53.943 126.215C53.8128 125.929 53.7483 125.587 53.7495 125.188C53.7507 124.788 53.8158 124.449 53.9448 124.169C54.075 123.89 54.2596 123.677 54.4988 123.532C54.7391 123.386 55.0243 123.313 55.3546 123.313C55.6848 123.313 55.9701 123.387 56.2104 123.534C56.4507 123.679 56.6359 123.892 56.7662 124.171C56.8964 124.45 56.9609 124.789 56.9597 125.188C56.9597 125.59 56.8946 125.933 56.7644 126.218C56.6342 126.503 56.4489 126.722 56.2086 126.873C55.9695 127.024 55.6848 127.099 55.3546 127.099ZM55.3546 126.296C55.525 126.296 55.6647 126.208 55.7736 126.03C55.8837 125.851 55.9382 125.571 55.937 125.188C55.937 124.939 55.9121 124.734 55.8624 124.576C55.8127 124.417 55.744 124.3 55.6564 124.224C55.5688 124.147 55.4682 124.109 55.3546 124.109C55.1841 124.109 55.045 124.195 54.9373 124.368C54.8296 124.541 54.7746 124.814 54.7722 125.188C54.771 125.443 54.7953 125.652 54.845 125.817C54.8947 125.98 54.9634 126.101 55.051 126.179C55.1397 126.257 55.2409 126.296 55.3546 126.296Z" fill="black"/>
<path d="M38.6619 123.313C38.8738 123.313 39.0745 123.347 39.2638 123.415C39.4532 123.481 39.6207 123.586 39.7663 123.729C39.9131 123.872 40.0279 124.059 40.1108 124.29C40.1948 124.52 40.2375 124.798 40.2386 125.124C40.2398 125.423 40.2025 125.691 40.1268 125.929C40.0522 126.166 39.9451 126.367 39.8054 126.534C39.6669 126.701 39.5 126.829 39.3047 126.918C39.1106 127.005 38.8939 127.049 38.6548 127.049C38.3861 127.049 38.15 126.998 37.9464 126.895C37.7428 126.792 37.5806 126.653 37.4599 126.479C37.3391 126.305 37.2687 126.112 37.2486 125.899L38.2216 125.899C38.2453 126.009 38.2973 126.089 38.3778 126.138C38.4583 126.187 38.5507 126.211 38.6548 126.211C38.8632 126.211 39.0153 126.121 39.1112 125.941C39.2082 125.76 39.2573 125.519 39.2585 125.217L39.2372 125.217C39.1911 125.328 39.1212 125.423 39.0277 125.503C38.9342 125.582 38.8253 125.643 38.701 125.686C38.5767 125.728 38.4453 125.749 38.3068 125.749C38.0878 125.749 37.8961 125.7 37.7315 125.602C37.567 125.503 37.4386 125.367 37.3462 125.195C37.2539 125.023 37.2072 124.826 37.206 124.606C37.2048 124.348 37.2657 124.122 37.3888 123.928C37.512 123.734 37.683 123.583 37.902 123.475C38.121 123.367 38.3743 123.313 38.6619 123.313ZM38.669 124.059C38.5708 124.059 38.4832 124.082 38.4063 124.127C38.3305 124.172 38.2707 124.233 38.2269 124.309C38.1843 124.386 38.1636 124.473 38.1648 124.57C38.166 124.668 38.1879 124.755 38.2305 124.831C38.2743 124.908 38.3335 124.969 38.408 125.014C38.4838 125.059 38.5708 125.082 38.669 125.082C38.7412 125.082 38.8081 125.069 38.8697 125.045C38.9312 125.019 38.9845 124.982 39.0295 124.936C39.0756 124.889 39.1112 124.834 39.136 124.773C39.1621 124.71 39.1745 124.643 39.1733 124.57C39.1721 124.473 39.1496 124.386 39.1058 124.309C39.062 124.233 39.0022 124.172 38.9265 124.127C38.8507 124.082 38.7649 124.059 38.669 124.059Z" fill="black"/>
<path d="M175 149.999L175 133.818L175 125.727M175 60.9995L175 69.0904L175 85.2722L175 101.454L175 109.545" stroke="black"/>
<line x1="221" y1="60.4995" x2="165" y2="60.4995" stroke="black"/>
<path d="M165.5 59.9995L165.5 29.9995M165.5 -0.000549316L165.5 14.9995L165.5 22.4995" stroke="black"/>
<path d="M221 60.4995H235.625M338 60.4995H279.5H250.25" stroke="black"/>
<rect x="79.25" y="44.2495" width="43.5" height="60.5" fill="#C0D8FC" stroke="black" stroke-width="0.5"/>
<circle cx="101" cy="21.9995" r="11.75" fill="#C0D8FC" stroke="black" stroke-width="0.5"/>
<circle cx="101" cy="126.999" r="11.75" fill="#C0D8FC" stroke="black" stroke-width="0.5"/>
<path d="M48.5 10.5093C55.1718 10.7717 60.5 16.2633 60.5 22.9995V33.4995H48.5V10.5093Z" stroke="black"/>
<path d="M32.5 10.5093C39.1718 10.7717 44.5 16.2633 44.5 22.9995V33.4995H32.5V10.5093Z" stroke="black"/>
<path d="M48.5 138.49C55.1718 138.227 60.5 132.736 60.5 125.999V115.499H48.5V138.49Z" stroke="black"/>
<path d="M32.5 138.49C39.1718 138.227 44.5 132.736 44.5 125.999V115.499H32.5V138.49Z" stroke="black"/>
<path d="M205.216 26.454V25.1813H210.273V26.454H208.523V30.9995H206.966V26.454H205.216ZM210.437 32.6358V26.6358H211.994V27.3972H212.028C212.085 27.2495 212.168 27.114 212.278 26.9909C212.388 26.8659 212.524 26.7665 212.687 26.6926C212.85 26.6169 213.039 26.579 213.255 26.579C213.543 26.579 213.817 26.6557 214.076 26.8091C214.337 26.9625 214.549 27.204 214.712 27.5335C214.877 27.8631 214.96 28.2911 214.96 28.8176C214.96 29.3214 214.881 29.739 214.724 30.0705C214.568 30.4019 214.36 30.6491 214.099 30.812C213.839 30.9748 213.554 31.0563 213.244 31.0563C213.039 31.0563 212.856 31.0231 212.695 30.9568C212.536 30.8887 212.4 30.7968 212.286 30.6813C212.174 30.5638 212.088 30.4313 212.028 30.2835H212.005V32.6358H210.437ZM211.971 28.8176C211.971 29.0298 211.998 29.2135 212.053 29.3688C212.11 29.5222 212.19 29.6415 212.292 29.7267C212.396 29.8101 212.52 29.8517 212.664 29.8517C212.808 29.8517 212.93 29.811 213.031 29.7296C213.133 29.6462 213.21 29.5279 213.263 29.3745C213.318 29.2191 213.346 29.0335 213.346 28.8176C213.346 28.6017 213.318 28.4171 213.263 28.2637C213.21 28.1084 213.133 27.99 213.031 27.9085C212.93 27.8252 212.808 27.7835 212.664 27.7835C212.52 27.7835 212.396 27.8252 212.292 27.9085C212.19 27.99 212.11 28.1084 212.053 28.2637C211.998 28.4171 211.971 28.6017 211.971 28.8176ZM217.707 31.079C217.241 31.079 216.84 30.99 216.503 30.812C216.168 30.632 215.909 30.3745 215.727 30.0392C215.547 29.7021 215.457 29.2987 215.457 28.829C215.457 28.3782 215.548 27.9843 215.73 27.6472C215.912 27.3101 216.169 27.0477 216.5 26.8602C216.831 26.6727 217.223 26.579 217.673 26.579C218.003 26.579 218.301 26.6301 218.568 26.7324C218.835 26.8347 219.063 26.9834 219.253 27.1784C219.442 27.3716 219.588 27.6065 219.69 27.883C219.793 28.1595 219.844 28.471 219.844 28.8176V29.1813H215.946V28.3176H218.401C218.399 28.1926 218.366 28.0828 218.304 27.9881C218.243 27.8915 218.161 27.8167 218.057 27.7637C217.955 27.7087 217.838 27.6813 217.707 27.6813C217.58 27.6813 217.464 27.7087 217.358 27.7637C217.252 27.8167 217.167 27.8905 217.102 27.9852C217.04 28.0799 217.007 28.1907 217.003 28.3176V29.2495C217.003 29.3896 217.032 29.5146 217.091 29.6245C217.15 29.7343 217.234 29.8205 217.344 29.883C217.454 29.9455 217.586 29.9767 217.741 29.9767C217.849 29.9767 217.948 29.9616 218.037 29.9313C218.128 29.901 218.205 29.8574 218.27 29.8006C218.334 29.7419 218.382 29.6718 218.412 29.5904H219.844C219.795 29.8934 219.678 30.1566 219.494 30.3801C219.311 30.6017 219.067 30.7741 218.764 30.8972C218.463 31.0184 218.111 31.079 217.707 31.079ZM223.597 28.2154V29.3858H221.404V28.2154H223.597ZM221.961 26.6358V30.9995H220.484V26.6358H221.961ZM224.518 26.6358V30.9995H223.052V26.6358H224.518ZM226.481 31.0676C226.202 31.0676 225.956 31.0222 225.742 30.9313C225.53 30.8385 225.363 30.6983 225.242 30.5108C225.121 30.3233 225.06 30.0847 225.06 29.7949C225.06 29.5563 225.101 29.3527 225.183 29.1841C225.264 29.0137 225.378 28.8745 225.523 28.7665C225.669 28.6585 225.839 28.5762 226.032 28.5193C226.227 28.4625 226.437 28.4256 226.663 28.4085C226.907 28.3896 227.103 28.3669 227.251 28.3404C227.4 28.312 227.508 28.2731 227.575 28.2239C227.641 28.1727 227.674 28.1055 227.674 28.0222V28.0108C227.674 27.8972 227.63 27.8101 227.543 27.7495C227.456 27.6888 227.344 27.6585 227.208 27.6585C227.058 27.6585 226.936 27.6917 226.842 27.758C226.749 27.8224 226.693 27.9218 226.674 28.0563H225.231C225.25 27.7911 225.334 27.5468 225.484 27.3233C225.635 27.0979 225.856 26.918 226.146 26.7835C226.435 26.6472 226.797 26.579 227.231 26.579C227.543 26.579 227.824 26.6159 228.072 26.6898C228.32 26.7618 228.531 26.8631 228.705 26.9938C228.879 27.1226 229.012 27.2741 229.103 27.4483C229.196 27.6207 229.242 27.8082 229.242 28.0108V30.9995H227.776V30.3858H227.742C227.655 30.5487 227.549 30.6803 227.424 30.7807C227.301 30.8811 227.16 30.954 227.001 30.9995C226.844 31.0449 226.67 31.0676 226.481 31.0676ZM226.992 30.079C227.112 30.079 227.223 30.0544 227.327 30.0051C227.433 29.9559 227.52 29.8849 227.586 29.7921C227.652 29.6993 227.685 29.5866 227.685 29.454V29.0904C227.644 29.1074 227.599 29.1235 227.552 29.1387C227.506 29.1538 227.457 29.168 227.404 29.1813C227.353 29.1945 227.298 29.2068 227.239 29.2182C227.183 29.2296 227.123 29.24 227.06 29.2495C226.939 29.2684 226.84 29.2996 226.762 29.3432C226.686 29.3849 226.629 29.437 226.592 29.4995C226.556 29.5601 226.538 29.6282 226.538 29.704C226.538 29.8252 226.58 29.918 226.665 29.9824C226.751 30.0468 226.86 30.079 226.992 30.079ZM229.696 30.9995L231.06 28.6926L229.696 26.6358H231.469L232.389 28.2381H232.457V26.6358H234.026V28.2381H234.094L235.014 26.6358H236.787L235.423 28.6926L236.787 30.9995H234.969L234.082 29.4085H234.026V30.9995H232.457V29.4085H232.401L231.514 30.9995H229.696ZM239.231 31.079C238.765 31.079 238.363 30.99 238.026 30.812C237.691 30.632 237.433 30.3745 237.251 30.0392C237.071 29.7021 236.981 29.2987 236.981 28.829C236.981 28.3782 237.072 27.9843 237.254 27.6472C237.435 27.3101 237.692 27.0477 238.023 26.8602C238.355 26.6727 238.746 26.579 239.197 26.579C239.526 26.579 239.825 26.6301 240.092 26.7324C240.359 26.8347 240.587 26.9834 240.776 27.1784C240.966 27.3716 241.112 27.6065 241.214 27.883C241.316 28.1595 241.367 28.471 241.367 28.8176V29.1813L237.469 29.1813V28.3176H239.924C239.922 28.1926 239.89 28.0828 239.827 27.9881C239.767 27.8915 239.684 27.8167 239.58 27.7637C239.478 27.7087 239.362 27.6813 239.231 27.6813C239.104 27.6813 238.987 27.7087 238.881 27.7637C238.775 27.8167 238.69 27.8905 238.626 27.9852C238.563 28.0799 238.53 28.1907 238.526 28.3176V29.2495C238.526 29.3896 238.556 29.5146 238.614 29.6245C238.673 29.7343 238.757 29.8205 238.867 29.883C238.977 29.9455 239.11 29.9767 239.265 29.9767C239.373 29.9767 239.471 29.9616 239.56 29.9313C239.651 29.901 239.729 29.8574 239.793 29.8006C239.858 29.7419 239.905 29.6718 239.935 29.5904L241.367 29.5904C241.318 29.8934 241.201 30.1566 241.018 30.3801C240.834 30.6017 240.591 30.7741 240.288 30.8972C239.987 31.0184 239.634 31.079 239.231 31.079ZM242.007 32.6358V26.6358H243.564V27.3972H243.598C243.655 27.2495 243.738 27.114 243.848 26.9909C243.958 26.8659 244.094 26.7665 244.257 26.6926C244.42 26.6169 244.609 26.579 244.825 26.579C245.113 26.579 245.387 26.6557 245.646 26.8091C245.908 26.9625 246.12 27.204 246.283 27.5335C246.447 27.8631 246.53 28.2911 246.53 28.8176C246.53 29.3214 246.451 29.739 246.294 30.0705C246.139 30.4019 245.93 30.6491 245.669 30.812C245.41 30.9748 245.125 31.0563 244.814 31.0563C244.609 31.0563 244.427 31.0231 244.266 30.9568C244.107 30.8887 243.97 30.7968 243.857 30.6813C243.745 30.5638 243.659 30.4313 243.598 30.2835H243.575V32.6358H242.007ZM243.541 28.8176C243.541 29.0298 243.569 29.2135 243.624 29.3688C243.68 29.5222 243.76 29.6415 243.862 29.7267C243.966 29.8101 244.09 29.8517 244.234 29.8517C244.378 29.8517 244.5 29.811 244.601 29.7296C244.703 29.6462 244.781 29.5279 244.834 29.3745C244.889 29.2191 244.916 29.0335 244.916 28.8176C244.916 28.6017 244.889 28.4171 244.834 28.2637C244.781 28.1084 244.703 27.99 244.601 27.9085C244.5 27.8252 244.378 27.7835 244.234 27.7835C244.09 27.7835 243.966 27.8252 243.862 27.9085C243.76 27.99 243.68 28.1084 243.624 28.2637C243.569 28.4171 243.541 28.6017 243.541 28.8176ZM250.3 28.2154V29.3858H248.107V28.2154H250.3ZM248.664 26.6358V30.9995L247.187 30.9995V26.6358H248.664ZM251.221 26.6358V30.9995H249.755V26.6358H251.221ZM252.843 27.8176H254.184C254.807 27.8176 255.298 27.9616 255.656 28.2495C256.013 28.5354 256.193 28.9294 256.195 29.4313C256.193 29.7551 256.111 30.0345 255.948 30.2693C255.787 30.5042 255.556 30.6851 255.255 30.812C254.956 30.937 254.599 30.9995 254.184 30.9995H251.968V26.6358H253.445V29.829H254.184C254.345 29.829 254.478 29.7911 254.582 29.7154C254.686 29.6377 254.739 29.5392 254.741 29.4199C254.739 29.293 254.686 29.1898 254.582 29.1102C254.478 29.0288 254.345 28.9881 254.184 28.9881H252.843V27.8176ZM256.513 30.9995V26.6358H258.082V30.9995H256.513ZM260.352 28.9995L261.567 26.6358H263.045V30.9995H261.567V28.6245L260.352 30.9995H258.874V26.6358H260.352V28.9995ZM261.522 25.0676H262.511C262.509 25.437 262.368 25.7324 262.087 25.954C261.807 26.1737 261.429 26.2835 260.954 26.2835C260.475 26.2835 260.095 26.1737 259.815 25.954C259.534 25.7324 259.395 25.437 259.397 25.0676H260.374C260.372 25.187 260.415 25.2968 260.502 25.3972C260.591 25.4957 260.742 25.5449 260.954 25.5449C261.156 25.5449 261.301 25.4966 261.388 25.4C261.476 25.3034 261.52 25.1926 261.522 25.0676ZM265.244 29.6813H266.721C266.721 29.7911 266.768 29.8811 266.863 29.9512C266.96 30.0212 267.083 30.0563 267.232 30.0563C267.382 30.0563 267.504 30.0174 267.599 29.9398C267.695 29.8602 267.744 29.7589 267.744 29.6358C267.744 29.5582 267.724 29.49 267.684 29.4313C267.644 29.3707 267.589 29.3233 267.519 29.2892C267.449 29.2551 267.369 29.2381 267.278 29.2381H266.732V28.3176H267.278C267.412 28.3176 267.521 28.2854 267.604 28.221C267.69 28.1566 267.732 28.0752 267.732 27.9767C267.732 27.8631 267.691 27.7703 267.607 27.6983C267.524 27.6263 267.418 27.5904 267.289 27.5904C267.16 27.5904 267.054 27.6197 266.971 27.6784C266.888 27.7371 266.846 27.8138 266.846 27.9085H265.369C265.369 27.6282 265.452 27.3896 265.619 27.1926C265.785 26.9938 266.009 26.8423 266.289 26.7381C266.569 26.632 266.88 26.579 267.221 26.579C267.611 26.579 267.946 26.6263 268.227 26.721C268.507 26.8157 268.722 26.9549 268.871 27.1387C269.021 27.3224 269.096 27.5487 269.096 27.8176C269.096 28.0392 269.015 28.2296 268.854 28.3887C268.693 28.5459 268.456 28.6585 268.141 28.7267V28.7722C268.329 28.7816 268.503 28.8262 268.664 28.9057C268.827 28.9852 268.959 29.0989 269.059 29.2466C269.159 29.3943 269.21 29.5771 269.21 29.7949C269.21 30.0676 269.124 30.2996 268.954 30.4909C268.785 30.6822 268.552 30.828 268.255 30.9284C267.958 31.0288 267.617 31.079 267.232 31.079C266.857 31.079 266.522 31.0288 266.227 30.9284C265.931 30.8262 265.696 30.6718 265.522 30.4654C265.348 30.257 265.255 29.9957 265.244 29.6813ZM271.036 31.0676C270.757 31.0676 270.511 31.0222 270.297 30.9313C270.085 30.8385 269.918 30.6983 269.797 30.5108C269.676 30.3233 269.615 30.0847 269.615 29.7949C269.615 29.5563 269.656 29.3527 269.737 29.1841C269.819 29.0137 269.932 28.8745 270.078 28.7665C270.224 28.6585 270.393 28.5762 270.587 28.5193C270.782 28.4625 270.992 28.4256 271.217 28.4085C271.462 28.3896 271.658 28.3669 271.805 28.3404C271.955 28.312 272.063 28.2731 272.129 28.2239C272.196 28.1727 272.229 28.1055 272.229 28.0222V28.0108C272.229 27.8972 272.185 27.8101 272.098 27.7495C272.011 27.6888 271.899 27.6585 271.763 27.6585C271.613 27.6585 271.491 27.6917 271.396 27.758C271.304 27.8224 271.248 27.9218 271.229 28.0563H269.786C269.804 27.7911 269.889 27.5468 270.038 27.3233C270.19 27.0979 270.411 26.918 270.7 26.7835C270.99 26.6472 271.352 26.579 271.786 26.579C272.098 26.579 272.378 26.6159 272.626 26.6898C272.875 26.7618 273.086 26.8631 273.26 26.9938C273.434 27.1226 273.567 27.2741 273.658 27.4483C273.75 27.6207 273.797 27.8082 273.797 28.0108V30.9995H272.331V30.3858H272.297C272.21 30.5487 272.104 30.6803 271.979 30.7807C271.856 30.8811 271.714 30.954 271.555 30.9995C271.398 31.0449 271.225 31.0676 271.036 31.0676ZM271.547 30.079C271.666 30.079 271.778 30.0544 271.882 30.0051C271.988 29.9559 272.074 29.8849 272.141 29.7921C272.207 29.6993 272.24 29.5866 272.24 29.454V29.0904C272.198 29.1074 272.154 29.1235 272.107 29.1387C272.061 29.1538 272.012 29.168 271.959 29.1813C271.908 29.1945 271.853 29.2068 271.794 29.2182C271.737 29.2296 271.678 29.24 271.615 29.2495C271.494 29.2684 271.394 29.2996 271.317 29.3432C271.241 29.3849 271.184 29.437 271.146 29.4995C271.11 29.5601 271.092 29.6282 271.092 29.704C271.092 29.8252 271.135 29.918 271.22 29.9824C271.305 30.0468 271.414 30.079 271.547 30.079ZM274.376 30.9995L274.364 29.8176H274.501C274.586 29.8176 274.661 29.793 274.725 29.7438C274.791 29.6945 274.847 29.6188 274.893 29.5165C274.94 29.4142 274.977 29.2845 275.004 29.1273C275.032 28.9701 275.05 28.7835 275.058 28.5676L275.126 26.6358H278.717V30.9995L277.239 30.9995V27.8063H276.512L276.444 28.9881C276.425 29.3593 276.372 29.6737 276.285 29.9313C276.2 30.1888 276.086 30.3962 275.944 30.5534C275.802 30.7087 275.637 30.8224 275.45 30.8943C275.262 30.9644 275.056 30.9995 274.83 30.9995H274.376Z" fill="black"/>
<path d="M98 57.3745H103.818V61.4654H102.545V58.954H101.864V59.5449C101.864 60.0335 101.785 60.4606 101.628 60.8262C101.471 61.1936 101.249 61.4786 100.963 61.6813C100.677 61.8858 100.341 61.9881 99.9545 61.9881C99.5682 61.9881 99.2282 61.8858 98.9347 61.6813C98.6411 61.4786 98.4119 61.1936 98.2472 60.8262C98.0824 60.4606 98 60.0335 98 59.5449V57.3745ZM99.2386 58.954V59.5449C99.2386 59.7343 99.2699 59.8934 99.3324 60.0222C99.3949 60.1529 99.4811 60.2513 99.5909 60.3176C99.7008 60.3858 99.8258 60.4199 99.9659 60.4199C100.165 60.4199 100.33 60.3451 100.46 60.1955C100.593 60.0459 100.659 59.829 100.659 59.5449V58.954H99.2386ZM97.9318 63.785C97.9318 63.5066 97.9773 63.2603 98.0682 63.0463C98.161 62.8342 98.3011 62.6675 98.4886 62.5463C98.6761 62.4251 98.9148 62.3645 99.2045 62.3645C99.4432 62.3645 99.6468 62.4052 99.8153 62.4867C99.9858 62.5681 100.125 62.6817 100.233 62.8276C100.341 62.9734 100.423 63.1429 100.48 63.3361C100.537 63.5312 100.574 63.7414 100.591 63.9668C100.61 64.2111 100.633 64.4071 100.659 64.5548C100.688 64.7045 100.726 64.8124 100.776 64.8787C100.827 64.945 100.894 64.9781 100.977 64.9781H100.989C101.102 64.9781 101.189 64.9346 101.25 64.8475C101.311 64.7603 101.341 64.6486 101.341 64.5122C101.341 64.3626 101.308 64.2405 101.241 64.1458C101.177 64.053 101.078 63.9971 100.943 63.9781V62.535C101.208 62.5539 101.453 62.6382 101.676 62.7878C101.902 62.9393 102.081 63.16 102.216 63.4497C102.352 63.7395 102.42 64.1013 102.42 64.535C102.42 64.8475 102.384 65.1278 102.31 65.3759C102.238 65.624 102.136 65.8352 102.006 66.0094C101.877 66.1836 101.725 66.3162 101.551 66.4071C101.379 66.4999 101.191 66.5463 100.989 66.5463H98V65.0804H98.6136V65.0463C98.4508 64.9592 98.3191 64.8531 98.2188 64.7281C98.1184 64.605 98.0455 64.4639 98 64.3048C97.9545 64.1477 97.9318 63.9744 97.9318 63.785ZM98.9205 64.2963C98.9205 64.4156 98.9451 64.5274 98.9943 64.6316C99.0436 64.7376 99.1146 64.8238 99.2074 64.8901C99.3002 64.9564 99.4129 64.9895 99.5455 64.9895H99.9091C99.892 64.9478 99.8759 64.9033 99.8608 64.856C99.8456 64.8105 99.8314 64.7613 99.8182 64.7083C99.8049 64.6571 99.7926 64.6022 99.7812 64.5435C99.7699 64.4867 99.7595 64.427 99.75 64.3645C99.7311 64.2433 99.6998 64.1439 99.6562 64.0662C99.6146 63.9905 99.5625 63.9336 99.5 63.8958C99.4394 63.8598 99.3712 63.8418 99.2955 63.8418C99.1742 63.8418 99.0814 63.8844 99.017 63.9696C98.9527 64.0548 98.9205 64.1637 98.9205 64.2963ZM97.9205 69.3979C97.9205 68.9244 98.0142 68.5191 98.2017 68.182C98.3911 67.8449 98.6544 67.5863 98.9915 67.4064C99.3305 67.2265 99.7235 67.1365 100.17 67.1365C100.617 67.1365 101.009 67.2265 101.347 67.4064C101.686 67.5863 101.949 67.8449 102.136 68.182C102.326 68.5191 102.42 68.9244 102.42 69.3979C102.42 69.8259 102.343 70.1962 102.188 70.5087C102.034 70.8231 101.816 71.0664 101.534 71.2388C101.254 71.4111 100.924 71.4983 100.545 71.5002V70.0456C100.775 70.0248 100.949 69.9585 101.068 69.8468C101.189 69.7369 101.25 69.5949 101.25 69.4206C101.25 69.2843 101.21 69.1649 101.131 69.0627C101.053 68.9604 100.935 68.8808 100.776 68.824C100.618 68.7672 100.42 68.7388 100.182 68.7388C99.9432 68.7388 99.7443 68.7672 99.5852 68.824C99.428 68.8808 99.3097 68.9604 99.2301 69.0627C99.1525 69.1649 99.1136 69.2843 99.1136 69.4206C99.1136 69.5361 99.1402 69.6384 99.1932 69.7274C99.2481 69.8164 99.3277 69.8884 99.4318 69.9433C99.5379 70.0002 99.6667 70.0343 99.8182 70.0456V71.5002C99.4337 71.4945 99.0985 71.4064 98.8125 71.236C98.5284 71.0655 98.3087 70.824 98.1534 70.5115C97.9981 70.2009 97.9205 69.8297 97.9205 69.3979ZM97.9205 74.2495C97.9205 73.776 98.0142 73.3707 98.2017 73.0335C98.3911 72.6964 98.6544 72.4379 98.9915 72.258C99.3305 72.078 99.7235 71.9881 100.17 71.9881C100.617 71.9881 101.009 72.078 101.347 72.258C101.686 72.4379 101.949 72.6964 102.136 73.0335C102.326 73.3707 102.42 73.776 102.42 74.2495C102.42 74.6775 102.343 75.0477 102.188 75.3602C102.034 75.6746 101.816 75.918 101.534 76.0904C101.254 76.2627 100.924 76.3498 100.545 76.3517V74.8972C100.775 74.8763 100.949 74.8101 101.068 74.6983C101.189 74.5885 101.25 74.4464 101.25 74.2722C101.25 74.1358 101.21 74.0165 101.131 73.9142C101.053 73.812 100.935 73.7324 100.776 73.6756C100.618 73.6188 100.42 73.5904 100.182 73.5904C99.9432 73.5904 99.7443 73.6188 99.5852 73.6756C99.428 73.7324 99.3097 73.812 99.2301 73.9142C99.1525 74.0165 99.1136 74.1358 99.1136 74.2722C99.1136 74.3877 99.1402 74.49 99.1932 74.579C99.2481 74.668 99.3277 74.74 99.4318 74.7949C99.5379 74.8517 99.6667 74.8858 99.8182 74.8972V76.3517C99.4337 76.346 99.0985 76.258 98.8125 76.0875C98.5284 75.9171 98.3087 75.6756 98.1534 75.3631C97.9981 75.0525 97.9205 74.6813 97.9205 74.2495ZM97.9205 79.0896C97.9205 78.6237 98.0095 78.2222 98.1875 77.8851C98.3674 77.5499 98.625 77.2914 98.9602 77.1095C99.2973 76.9296 99.7008 76.8396 100.17 76.8396C100.621 76.8396 101.015 76.9306 101.352 77.1124C101.689 77.2942 101.952 77.5508 102.139 77.8823C102.327 78.2137 102.42 78.6048 102.42 79.0556C102.42 79.3851 102.369 79.6834 102.267 79.9504C102.165 80.2175 102.016 80.4457 101.821 80.6351C101.628 80.8245 101.393 80.9703 101.116 81.0726C100.84 81.1749 100.528 81.226 100.182 81.226H99.8182V77.3283H100.682V79.7828C100.807 79.7809 100.917 79.7487 101.011 79.6862C101.108 79.6256 101.183 79.5432 101.236 79.4391C101.291 79.3368 101.318 79.2203 101.318 79.0896C101.318 78.9628 101.291 78.8463 101.236 78.7402C101.183 78.6342 101.109 78.5489 101.014 78.4845C100.92 78.422 100.809 78.3889 100.682 78.3851H99.75C99.6098 78.3851 99.4848 78.4145 99.375 78.4732C99.2652 78.5319 99.179 78.6162 99.1165 78.726C99.054 78.8359 99.0227 78.9684 99.0227 79.1237C99.0227 79.2317 99.0379 79.3302 99.0682 79.4192C99.0985 79.5101 99.142 79.5878 99.1989 79.6521C99.2576 79.7165 99.3277 79.7639 99.4091 79.7942V81.226C99.1061 81.1768 98.8428 81.0603 98.6193 80.8766C98.3977 80.6929 98.2254 80.4495 98.1023 80.1465C97.9811 79.8453 97.9205 79.4931 97.9205 79.0896ZM100 83.3432L102.364 84.5591V86.0364H98V84.5591H100.375L98 83.3432V81.8659H102.364V83.3432H100ZM103.932 84.5137V85.5023C103.563 85.5004 103.267 85.3593 103.045 85.079C102.826 84.7987 102.716 84.4209 102.716 83.9455C102.716 83.4663 102.826 83.0866 103.045 82.8063C103.267 82.526 103.563 82.3868 103.932 82.3887V83.3659C103.813 83.364 103.703 83.4066 103.602 83.4938C103.504 83.5828 103.455 83.7334 103.455 83.9455C103.455 84.1481 103.503 84.293 103.599 84.3801C103.696 84.4673 103.807 84.5118 103.932 84.5137ZM100.784 89.9483H99.6136V87.7551H100.784V89.9483ZM102.364 88.312H98V86.8347H102.364V88.312ZM102.364 90.8688H98V89.4029H102.364V90.8688Z" fill="black"/>
<path d="M242.825 38.0989C242.495 38.0977 242.21 38.0213 241.969 37.8698C241.729 37.7183 241.544 37.4999 241.414 37.2146C241.283 36.9294 241.219 36.5873 241.22 36.1884C241.221 35.7883 241.286 35.4486 241.415 35.1692C241.546 34.8898 241.73 34.6774 241.969 34.5318C242.21 34.3862 242.495 34.3134 242.825 34.3134C243.156 34.3134 243.441 34.3868 243.681 34.5335C243.921 34.6791 244.107 34.8916 244.237 35.171C244.367 35.4503 244.432 35.7895 244.43 36.1884C244.43 36.5896 244.365 36.9329 244.235 37.2182C244.105 37.5035 243.92 37.7219 243.679 37.8734C243.44 38.0237 243.156 38.0989 242.825 38.0989ZM242.825 37.2963C242.996 37.2963 243.135 37.2075 243.244 37.03C243.354 36.8512 243.409 36.5707 243.408 36.1884C243.408 35.9386 243.383 35.7344 243.333 35.5758C243.283 35.4172 243.215 35.3 243.127 35.2242C243.04 35.1473 242.939 35.1088 242.825 35.1088C242.655 35.1088 242.516 35.1952 242.408 35.3681C242.3 35.5409 242.245 35.8143 242.243 36.1884C242.242 36.4429 242.266 36.6524 242.316 36.8169C242.365 36.9803 242.434 37.101 242.522 37.1791C242.61 37.2573 242.712 37.2963 242.825 37.2963Z" fill="black"/>
<path d="M226.875 96.7608H228.432C228.92 96.7608 229.353 96.8602 229.73 97.0591C230.109 97.258 230.405 97.5402 230.619 97.9057C230.835 98.2712 230.943 98.704 230.943 99.204C230.943 99.6775 230.835 100.088 230.619 100.434C230.405 100.781 230.109 101.049 229.73 101.238C229.353 101.427 228.92 101.522 228.432 101.522H226.875C226.383 101.522 225.946 101.428 225.565 101.241C225.187 101.053 224.889 100.785 224.673 100.437C224.459 100.088 224.352 99.6737 224.352 99.1926C224.352 98.6926 224.461 98.2608 224.679 97.8972C224.899 97.5335 225.198 97.2532 225.577 97.0563C225.957 96.8593 226.39 96.7608 226.875 96.7608ZM226.875 98.0563C226.678 98.0563 226.496 98.0932 226.33 98.1671C226.165 98.2409 226.032 98.3612 225.932 98.5279C225.833 98.6945 225.784 98.9161 225.784 99.1926C225.784 99.4464 225.835 99.6491 225.938 99.8006C226.042 99.9521 226.176 100.061 226.341 100.127C226.508 100.194 226.686 100.227 226.875 100.227H228.443C228.636 100.227 228.812 100.193 228.972 100.124C229.133 100.054 229.26 99.9445 229.355 99.7949C229.452 99.6434 229.5 99.4464 229.5 99.204C229.5 98.9275 229.452 98.7049 229.355 98.5364C229.26 98.3678 229.133 98.2457 228.972 98.1699C228.812 98.0941 228.636 98.0563 228.443 98.0563H226.875ZM228.386 96.079V102.238H226.909V96.079H228.386ZM233.172 99.9995L234.388 97.6358H235.865V101.999H234.388V99.6245L233.172 101.999H231.695V97.6358H233.172V99.9995ZM236.33 98.8063V97.6358H240.558V98.8063H239.171V101.999H237.694V98.8063H236.33ZM244.254 99.2154V100.386H242.06V99.2154H244.254ZM242.617 97.6358V101.999H241.14V97.6358H242.617ZM245.174 97.6358V101.999H243.708V97.6358H245.174ZM248.012 102.079C247.546 102.079 247.145 101.99 246.808 101.812C246.472 101.632 246.214 101.374 246.032 101.039C245.852 100.702 245.762 100.299 245.762 99.829C245.762 99.3782 245.853 98.9843 246.035 98.6472C246.217 98.3101 246.473 98.0477 246.805 97.8602C247.136 97.6727 247.527 97.579 247.978 97.579C248.308 97.579 248.606 97.6301 248.873 97.7324C249.14 97.8347 249.368 97.9834 249.558 98.1784C249.747 98.3716 249.893 98.6065 249.995 98.883C250.097 99.1595 250.148 99.471 250.148 99.8176V100.181H246.251V99.3176H248.705C248.703 99.1926 248.671 99.0828 248.609 98.9881C248.548 98.8915 248.466 98.8167 248.362 98.7637C248.259 98.7087 248.143 98.6813 248.012 98.6813C247.885 98.6813 247.769 98.7087 247.663 98.7637C247.557 98.8167 247.471 98.8905 247.407 98.9852C247.344 99.0799 247.311 99.1907 247.308 99.3176V100.249C247.308 100.39 247.337 100.515 247.396 100.624C247.454 100.734 247.539 100.82 247.648 100.883C247.758 100.945 247.891 100.977 248.046 100.977C248.154 100.977 248.253 100.962 248.342 100.931C248.433 100.901 248.51 100.857 248.575 100.801C248.639 100.742 248.686 100.672 248.717 100.59H250.148C250.099 100.893 249.983 101.157 249.799 101.38C249.615 101.602 249.372 101.774 249.069 101.897C248.768 102.018 248.415 102.079 248.012 102.079ZM252.891 102.079C252.417 102.079 252.012 101.985 251.675 101.798C251.338 101.608 251.079 101.345 250.899 101.008C250.719 100.669 250.629 100.276 250.629 99.829C250.629 99.382 250.719 98.99 250.899 98.6529C251.079 98.3138 251.338 98.0506 251.675 97.8631C252.012 97.6737 252.417 97.579 252.891 97.579C253.319 97.579 253.689 97.6566 254.001 97.812C254.316 97.9654 254.559 98.1832 254.732 98.4654C254.904 98.7457 254.991 99.0752 254.993 99.454H253.538C253.518 99.2248 253.451 99.0506 253.339 98.9313C253.23 98.8101 253.088 98.7495 252.913 98.7495C252.777 98.7495 252.658 98.7892 252.555 98.8688C252.453 98.9464 252.374 99.0648 252.317 99.2239C252.26 99.3811 252.232 99.579 252.232 99.8176C252.232 100.056 252.26 100.255 252.317 100.414C252.374 100.571 252.453 100.69 252.555 100.769C252.658 100.847 252.777 100.886 252.913 100.886C253.029 100.886 253.131 100.859 253.22 100.806C253.309 100.751 253.381 100.672 253.436 100.568C253.493 100.462 253.527 100.333 253.538 100.181H254.993C254.987 100.566 254.899 100.901 254.729 101.187C254.558 101.471 254.317 101.691 254.004 101.846C253.694 102.001 253.322 102.079 252.891 102.079ZM258.504 99.0904V100.272H255.776V99.0904H258.504ZM263.505 97.6358V101.022H264.255V103.397H262.744V101.999H259.437V97.6358H260.914V100.829H262.05V97.6358H263.505ZM266.856 102.079C266.39 102.079 265.988 101.99 265.651 101.812C265.316 101.632 265.058 101.374 264.876 101.039C264.696 100.702 264.606 100.299 264.606 99.829C264.606 99.3782 264.697 98.9843 264.879 98.6472C265.06 98.3101 265.317 98.0477 265.648 97.8602C265.98 97.6727 266.371 97.579 266.822 97.579C267.151 97.579 267.45 97.6301 267.717 97.7324C267.984 97.8347 268.212 97.9834 268.401 98.1784C268.591 98.3716 268.737 98.6065 268.839 98.883C268.941 99.1595 268.992 99.471 268.992 99.8176V100.181H265.094V99.3176H267.549C267.547 99.1926 267.515 99.0828 267.452 98.9881C267.392 98.8915 267.309 98.8167 267.205 98.7637C267.103 98.7087 266.987 98.6813 266.856 98.6813C266.729 98.6813 266.612 98.7087 266.506 98.7637C266.4 98.8167 266.315 98.8905 266.251 98.9852C266.188 99.0799 266.155 99.1907 266.151 99.3176V100.249C266.151 100.39 266.181 100.515 266.239 100.624C266.298 100.734 266.382 100.82 266.492 100.883C266.602 100.945 266.735 100.977 266.89 100.977C266.998 100.977 267.096 100.962 267.185 100.931C267.276 100.901 267.354 100.857 267.418 100.801C267.483 100.742 267.53 100.672 267.56 100.59H268.992C268.943 100.893 268.826 101.157 268.643 101.38C268.459 101.602 268.216 101.774 267.913 101.897C267.612 102.018 267.259 102.079 266.856 102.079ZM272.746 99.2154V100.386H270.553V99.2154H272.746ZM271.109 97.6358V101.999H269.632V97.6358H271.109ZM273.666 97.6358V101.999H272.2V97.6358H273.666ZM274.08 98.8063V97.6358H278.308V98.8063H276.921V101.999H275.444V98.8063H274.08ZM278.89 103.636V97.6358H280.447V98.3972H280.481C280.538 98.2495 280.621 98.114 280.731 97.9909C280.841 97.8659 280.977 97.7665 281.14 97.6926C281.303 97.6169 281.492 97.579 281.708 97.579C281.996 97.579 282.27 97.6557 282.529 97.8091C282.79 97.9625 283.003 98.204 283.165 98.5335C283.33 98.8631 283.413 99.2911 283.413 99.8176C283.413 100.321 283.334 100.739 283.177 101.07C283.022 101.402 282.813 101.649 282.552 101.812C282.292 101.975 282.007 102.056 281.697 102.056C281.492 102.056 281.309 102.023 281.148 101.957C280.989 101.889 280.853 101.797 280.739 101.681C280.628 101.564 280.541 101.431 280.481 101.284H280.458V103.636H278.89ZM280.424 99.8176C280.424 100.03 280.451 100.213 280.506 100.369C280.563 100.522 280.643 100.641 280.745 100.727C280.849 100.81 280.973 100.852 281.117 100.852C281.261 100.852 281.383 100.811 281.484 100.73C281.586 100.646 281.664 100.528 281.717 100.374C281.772 100.219 281.799 100.034 281.799 99.8176C281.799 99.6017 281.772 99.4171 281.717 99.2637C281.664 99.1084 281.586 98.99 281.484 98.9085C281.383 98.8252 281.261 98.7835 281.117 98.7835C280.973 98.7835 280.849 98.8252 280.745 98.9085C280.643 98.99 280.563 99.1084 280.506 99.2637C280.451 99.4171 280.424 99.6017 280.424 99.8176Z" fill="black"/>
<path d="M252.241 108.999V108.289L253.598 107.167C253.688 107.092 253.765 107.023 253.829 106.958C253.894 106.891 253.944 106.823 253.978 106.753C254.013 106.684 254.031 106.606 254.031 106.521C254.031 106.427 254.011 106.347 253.971 106.281C253.932 106.215 253.877 106.164 253.808 106.128C253.738 106.092 253.657 106.073 253.566 106.073C253.475 106.073 253.394 106.092 253.325 106.128C253.256 106.165 253.203 106.219 253.165 106.29C253.127 106.361 253.108 106.447 253.108 106.549H252.17C252.17 106.293 252.228 106.073 252.343 105.889C252.458 105.704 252.62 105.562 252.829 105.463C253.039 105.363 253.284 105.313 253.566 105.313C253.857 105.313 254.109 105.36 254.322 105.454C254.537 105.546 254.702 105.676 254.818 105.844C254.935 106.012 254.994 106.209 254.994 106.436C254.994 106.575 254.965 106.714 254.907 106.853C254.849 106.99 254.744 107.142 254.594 107.309C254.444 107.476 254.23 107.675 253.953 107.906L253.612 108.19V108.211H255.033V108.999H252.241Z" fill="black"/>
<path d="M100.697 24.0492C100.418 24.0492 100.17 24 99.9535 23.9018C99.738 23.8024 99.5682 23.6656 99.4439 23.4916C99.3208 23.3176 99.258 23.1176 99.2557 22.8915L100.214 22.8915C100.218 23.017 100.267 23.117 100.36 23.1916C100.455 23.2661 100.567 23.3034 100.697 23.3034C100.798 23.3034 100.887 23.2821 100.964 23.2395C101.041 23.1957 101.101 23.1342 101.145 23.0548C101.189 22.9755 101.21 22.8832 101.209 22.7779C101.21 22.6713 101.189 22.579 101.145 22.5009C101.101 22.4216 101.041 22.3606 100.964 22.318C100.887 22.2742 100.798 22.2523 100.697 22.2523C100.593 22.2523 100.497 22.2777 100.408 22.3286C100.32 22.3784 100.256 22.4476 100.214 22.5364L99.348 22.3659L99.4901 20.3631L101.933 20.3631L101.933 21.1514L100.3 21.1514L100.229 21.954L100.25 21.954C100.307 21.8439 100.405 21.7528 100.545 21.6806C100.684 21.6072 100.847 21.5705 101.031 21.5705C101.248 21.5705 101.441 21.6208 101.61 21.7214C101.781 21.822 101.915 21.9611 102.013 22.1387C102.113 22.315 102.162 22.5186 102.161 22.7495C102.162 23.0028 102.101 23.2277 101.979 23.4242C101.859 23.6195 101.689 23.7728 101.47 23.884C101.251 23.9941 100.993 24.0492 100.697 24.0492Z" fill="black"/>
<path d="M81.5682 73.2054H82.3352L84.6364 74.6685V75.3645H83.6136V74.9668L82.3636 74.1784H82.3352V76.3375H81.5682V73.2054ZM81 74.9739H81.8026L82.1364 74.9952H84.6364V75.9185H81V74.9739Z" fill="black"/>
<path d="M116.95 74.6614C116.95 74.3749 116.999 74.1204 117.098 73.8979C117.197 73.6765 117.334 73.5025 117.508 73.3759C117.682 73.2492 117.882 73.1853 118.108 73.1841V74.1784C118.038 74.1796 117.975 74.2009 117.92 74.2423C117.865 74.285 117.823 74.343 117.792 74.4164C117.761 74.4897 117.746 74.5738 117.746 74.6685C117.746 74.7596 117.762 74.8401 117.794 74.91C117.827 74.9798 117.872 75.0343 117.93 75.0733C117.988 75.1124 118.055 75.1313 118.129 75.1301C118.203 75.1313 118.268 75.1088 118.325 75.0627C118.381 75.0177 118.426 74.9544 118.458 74.8727C118.49 74.791 118.506 74.6969 118.506 74.5904V74.221H119.188V74.5904C119.188 74.6886 119.203 74.775 119.235 74.8496C119.267 74.9254 119.312 74.9839 119.369 75.0254C119.425 75.068 119.491 75.0887 119.564 75.0875C119.635 75.0887 119.698 75.0715 119.752 75.036C119.807 75.0005 119.849 74.9508 119.88 74.8869C119.911 74.8241 119.926 74.7513 119.926 74.6685C119.926 74.5785 119.91 74.498 119.878 74.427C119.846 74.3572 119.802 74.3021 119.745 74.2619C119.688 74.2216 119.623 74.2009 119.55 74.1997V73.2551C119.772 73.2563 119.969 73.3173 120.139 73.438C120.31 73.5599 120.443 73.7268 120.54 73.9387C120.638 74.1506 120.686 74.3939 120.686 74.6685C120.686 74.9372 120.641 75.1745 120.549 75.3805C120.458 75.5876 120.333 75.7492 120.173 75.8652C120.014 75.9824 119.833 76.0404 119.628 76.0392C119.424 76.0416 119.257 75.9718 119.127 75.8297C118.997 75.6888 118.92 75.5101 118.896 75.2935H118.868C118.836 75.587 118.746 75.8078 118.598 75.9558C118.451 76.1037 118.267 76.1765 118.044 76.1742C117.831 76.1754 117.642 76.1114 117.478 75.9824C117.313 75.8546 117.184 75.6764 117.091 75.448C116.997 75.2207 116.95 74.9585 116.95 74.6614Z" fill="black"/>
<path d="M100.761 129.049C100.549 129.049 100.348 129.016 100.158 128.95C99.9683 128.882 99.8002 128.776 99.6534 128.632C99.5066 128.487 99.3912 128.299 99.3072 128.067C99.2243 127.835 99.1835 127.554 99.1847 127.224C99.1858 126.929 99.2237 126.664 99.2983 126.428C99.3741 126.193 99.4812 125.992 99.6197 125.827C99.7594 125.661 99.9263 125.534 100.12 125.447C100.315 125.358 100.531 125.313 100.768 125.313C101.036 125.313 101.272 125.365 101.475 125.468C101.679 125.571 101.841 125.709 101.962 125.882C102.084 126.053 102.155 126.243 102.175 126.45L101.202 126.45C101.179 126.347 101.127 126.272 101.045 126.224C100.965 126.176 100.873 126.151 100.768 126.151C100.561 126.151 100.409 126.241 100.312 126.421C100.216 126.601 100.167 126.838 100.165 127.132L100.186 127.132C100.232 127.02 100.302 126.925 100.396 126.846C100.489 126.766 100.598 126.705 100.722 126.663C100.847 126.62 100.978 126.599 101.116 126.599C101.337 126.599 101.529 126.649 101.694 126.748C101.859 126.847 101.988 126.984 102.081 127.156C102.173 127.329 102.219 127.527 102.217 127.749C102.219 128.01 102.157 128.238 102.033 128.433C101.91 128.628 101.739 128.78 101.52 128.888C101.301 128.995 101.048 129.049 100.761 129.049ZM100.754 128.303C100.853 128.303 100.94 128.281 101.015 128.236C101.092 128.191 101.152 128.129 101.195 128.051C101.238 127.973 101.26 127.884 101.259 127.785C101.26 127.684 101.238 127.596 101.195 127.519C101.152 127.441 101.092 127.379 101.015 127.334C100.94 127.289 100.853 127.266 100.754 127.266C100.682 127.266 100.615 127.28 100.554 127.306C100.493 127.33 100.441 127.367 100.396 127.414C100.351 127.46 100.315 127.515 100.289 127.579C100.264 127.642 100.251 127.71 100.25 127.785C100.251 127.884 100.274 127.973 100.317 128.051C100.361 128.129 100.421 128.191 100.497 128.236C100.573 128.281 100.658 128.303 100.754 128.303Z" fill="black"/>
<path d="M53.4048 23.9995L54.8324 21.1727L54.8324 21.1514L53.1563 21.1514L53.1563 20.3631L55.8551 20.3631L55.8551 21.1514L54.4205 23.9995L53.4048 23.9995Z" fill="black"/>
<path d="M38.7259 24.0492C38.4323 24.0492 38.1701 24.0036 37.9393 23.9124C37.7096 23.8213 37.5285 23.6976 37.396 23.5414C37.2646 23.3851 37.1989 23.2087 37.1989 23.0122C37.1989 22.8619 37.2362 22.7246 37.3107 22.6003C37.3865 22.476 37.4883 22.373 37.6161 22.2914C37.744 22.2085 37.8866 22.1552 38.044 22.1316L38.044 22.1031C37.8369 22.0676 37.6664 21.9759 37.5327 21.8279C37.4001 21.6788 37.3338 21.503 37.3338 21.3006C37.3338 21.11 37.3942 20.9407 37.5149 20.7928C37.6357 20.6436 37.8008 20.5264 38.0103 20.4412C38.2198 20.356 38.4583 20.3134 38.7259 20.3134C38.9934 20.3134 39.2319 20.3566 39.4414 20.443C39.6509 20.5282 39.8161 20.6454 39.9368 20.7945C40.0575 20.9425 40.1179 21.1112 40.1179 21.3006C40.1179 21.5042 40.0504 21.68 39.9155 21.8279C39.7805 21.9759 39.6113 22.0676 39.4077 22.1031L39.4077 22.1316C39.5639 22.1552 39.706 22.2085 39.8338 22.2914C39.9616 22.373 40.0634 22.476 40.1392 22.6003C40.215 22.7246 40.2528 22.8619 40.2528 23.0122C40.2528 23.2087 40.1866 23.3851 40.054 23.5414C39.9226 23.6976 39.7415 23.8213 39.5107 23.9124C39.281 24.0036 39.0194 24.0492 38.7259 24.0492ZM38.7259 23.3673C38.8194 23.3673 38.9022 23.3484 38.9744 23.3105C39.0466 23.2727 39.1035 23.2206 39.1449 23.1543C39.1875 23.0868 39.2088 23.0111 39.2088 22.927C39.2088 22.843 39.1875 22.7684 39.1449 22.7033C39.1035 22.6382 39.0466 22.5873 38.9744 22.5506C38.9022 22.5127 38.8194 22.4938 38.7259 22.4938C38.6335 22.4938 38.5507 22.5127 38.4773 22.5506C38.4051 22.5873 38.3477 22.6382 38.305 22.7033C38.2636 22.7684 38.2429 22.843 38.2429 22.927C38.2429 23.0111 38.2636 23.0862 38.305 23.1525C38.3477 23.2188 38.4051 23.2715 38.4773 23.3105C38.5507 23.3484 38.6335 23.3673 38.7259 23.3673ZM38.7259 21.812C38.8087 21.812 38.8821 21.7948 38.946 21.7605C39.0099 21.7261 39.0603 21.6788 39.0969 21.6184C39.1336 21.558 39.152 21.49 39.152 21.4142C39.152 21.3385 39.1336 21.2716 39.0969 21.2136C39.0603 21.1544 39.0099 21.1082 38.946 21.0751C38.8821 21.0408 38.8087 21.0236 38.7259 21.0236C38.6442 21.0236 38.5708 21.0408 38.5057 21.0751C38.4418 21.1082 38.3915 21.1544 38.3548 21.2136C38.3181 21.2716 38.2997 21.3385 38.2997 21.4142C38.2997 21.49 38.3181 21.558 38.3548 21.6184C38.3915 21.6776 38.4418 21.7249 38.5057 21.7605C38.5708 21.7948 38.6442 21.812 38.7259 21.812Z" fill="black"/>
<path d="M91.0909 9.69831V8.3915H91.2955C91.3636 8.34983 91.4252 8.29112 91.4801 8.21536C91.536 8.1396 91.5833 8.03117 91.6222 7.89008C91.6619 7.74898 91.6913 7.56006 91.7102 7.32331L91.8068 6.09036H93.8636V8.3915H94.1705V9.69831H93.4091V8.99945H91.8523V9.69831H91.0909ZM92.1989 8.3915H93.1023V6.72672H92.517L92.4716 7.32331C92.4583 7.50134 92.438 7.65712 92.4105 7.79064C92.384 7.92322 92.3523 8.03875 92.3153 8.13723C92.2794 8.23477 92.2405 8.31953 92.1989 8.3915ZM94.3011 8.99945L94.983 7.84604L94.3011 6.81763H95.1875L95.6477 7.61877H95.6818V6.81763H96.4659V7.61877H96.5L96.9602 6.81763H97.8466L97.1648 7.84604L97.8466 8.99945H96.9375L96.4943 8.204H96.4659V8.99945H95.6818V8.204H95.6534L95.2102 8.99945H94.3011ZM98.6896 9.03354C98.5504 9.03354 98.4273 9.01081 98.3203 8.96536C98.2143 8.91896 98.1309 8.84888 98.0703 8.75513C98.0097 8.66138 97.9794 8.54206 97.9794 8.39718C97.9794 8.27786 97.9998 8.17606 98.0405 8.09178C98.0812 8.00655 98.138 7.93695 98.2109 7.88297C98.2839 7.829 98.3686 7.7878 98.4652 7.75939C98.5627 7.73098 98.6679 7.71252 98.7805 7.704C98.9027 7.69453 99.0007 7.68316 99.0746 7.66991C99.1494 7.6557 99.2034 7.63629 99.2365 7.61167C99.2696 7.5861 99.2862 7.55248 99.2862 7.51081V7.50513C99.2862 7.44831 99.2644 7.40475 99.2209 7.37445C99.1773 7.34415 99.1214 7.329 99.0533 7.329C98.9785 7.329 98.9174 7.34557 98.87 7.37871C98.8236 7.41091 98.7957 7.46062 98.7862 7.52786H98.0646C98.0741 7.39528 98.1162 7.27312 98.1911 7.16138C98.2668 7.04869 98.3771 6.95873 98.522 6.8915C98.6669 6.82331 98.8478 6.78922 99.0646 6.78922C99.2209 6.78922 99.361 6.80769 99.4851 6.84462C99.6091 6.88061 99.7147 6.93127 99.8018 6.99661C99.889 7.061 99.9553 7.13676 100.001 7.22388C100.047 7.31006 100.07 7.40381 100.07 7.50513V8.99945H99.3374V8.69263H99.3203C99.2768 8.77407 99.2237 8.83989 99.1612 8.89008C99.0997 8.94027 99.0291 8.97672 98.9496 8.99945C98.871 9.02218 98.7843 9.03354 98.6896 9.03354ZM98.9453 8.53922C99.005 8.53922 99.0608 8.52691 99.1129 8.50229C99.166 8.47767 99.209 8.44216 99.2422 8.39576C99.2753 8.34936 99.2919 8.29301 99.2919 8.22672V8.04491C99.2711 8.05343 99.2488 8.06148 99.2251 8.06905C99.2024 8.07663 99.1778 8.08373 99.1513 8.09036C99.1257 8.09699 99.0982 8.10314 99.0689 8.10883C99.0405 8.11451 99.0107 8.11972 98.9794 8.12445C98.9188 8.13392 98.8691 8.14955 98.8303 8.17133C98.7924 8.19216 98.764 8.2182 98.745 8.24945C98.727 8.27975 98.718 8.31384 98.718 8.35172C98.718 8.41233 98.7393 8.45873 98.782 8.49093C98.8246 8.52312 98.879 8.53922 98.9453 8.53922ZM100.445 8.99945V6.81763H101.229V7.59604H101.365L101.831 6.81763H102.729L102.03 7.91991L102.735 8.99945H101.826L101.405 8.32331H101.229V8.99945H100.445ZM103.453 9.81763C103.364 9.81763 103.278 9.81053 103.196 9.79633C103.115 9.78307 103.043 9.7646 102.982 9.74093L103.152 9.18411C103.217 9.20684 103.275 9.22152 103.328 9.22814C103.382 9.23477 103.428 9.23098 103.466 9.21678C103.505 9.20258 103.533 9.17559 103.55 9.13581L103.567 9.09604L102.8 6.81763H103.618L103.971 8.329H103.993L104.351 6.81763H105.175L104.38 9.18127C104.34 9.30153 104.282 9.40949 104.206 9.50513C104.132 9.60172 104.033 9.67795 103.911 9.73383C103.789 9.7897 103.636 9.81763 103.453 9.81763ZM105.301 8.34036H106.04C106.04 8.39528 106.064 8.44027 106.111 8.4753C106.159 8.51034 106.221 8.52786 106.296 8.52786C106.371 8.52786 106.432 8.50845 106.479 8.46962C106.527 8.42985 106.551 8.37919 106.551 8.31763C106.551 8.27881 106.542 8.24472 106.522 8.21536C106.502 8.18506 106.474 8.16138 106.439 8.14434C106.404 8.12729 106.364 8.11877 106.319 8.11877H106.046V7.65854H106.319C106.386 7.65854 106.44 7.64244 106.482 7.61025C106.525 7.57805 106.546 7.53733 106.546 7.48809C106.546 7.43127 106.525 7.38487 106.483 7.34888C106.442 7.3129 106.389 7.29491 106.324 7.29491C106.26 7.29491 106.207 7.30958 106.165 7.33894C106.123 7.3683 106.103 7.40665 106.103 7.454H105.364C105.364 7.31384 105.406 7.19453 105.489 7.09604C105.572 6.99661 105.684 6.92085 105.824 6.86877C105.964 6.81574 106.12 6.78922 106.29 6.78922C106.485 6.78922 106.653 6.8129 106.793 6.86025C106.933 6.90759 107.041 6.9772 107.115 7.06905C107.19 7.16091 107.228 7.27407 107.228 7.40854C107.228 7.51934 107.187 7.61451 107.107 7.69405C107.026 7.77265 106.908 7.829 106.75 7.86309V7.88581C106.844 7.89055 106.931 7.9128 107.012 7.95258C107.093 7.99235 107.159 8.04917 107.209 8.12303C107.259 8.19689 107.284 8.28828 107.284 8.39718C107.284 8.53354 107.242 8.64955 107.157 8.74519C107.072 8.84083 106.956 8.91375 106.807 8.96394C106.658 9.01413 106.488 9.03922 106.296 9.03922C106.108 9.03922 105.941 9.01413 105.793 8.96394C105.645 8.9128 105.528 8.83562 105.441 8.73241C105.354 8.62824 105.307 8.49756 105.301 8.34036ZM108.328 7.99945L108.936 6.81763H109.675V8.99945H108.936V7.81195L108.328 8.99945H107.589V6.81763H108.328V7.99945Z" fill="black"/>
<path d="M91.0909 143.698V142.391H91.2955C91.3636 142.35 91.4252 142.291 91.4801 142.215C91.536 142.14 91.5833 142.031 91.6222 141.89C91.6619 141.749 91.6913 141.56 91.7102 141.323L91.8068 140.09H93.8636V142.391H94.1705V143.698H93.4091V142.999H91.8523V143.698H91.0909ZM92.1989 142.391H93.1023V140.727H92.517L92.4716 141.323C92.4583 141.501 92.438 141.657 92.4105 141.791C92.384 141.923 92.3523 142.039 92.3153 142.137C92.2794 142.235 92.2405 142.32 92.1989 142.391ZM94.3011 142.999L94.983 141.846L94.3011 140.818H95.1875L95.6477 141.619H95.6818V140.818H96.4659V141.619H96.5L96.9602 140.818H97.8466L97.1648 141.846L97.8466 142.999H96.9375L96.4943 142.204H96.4659V142.999H95.6818V142.204H95.6534L95.2102 142.999H94.3011ZM98.6896 143.034C98.5504 143.034 98.4273 143.011 98.3203 142.965C98.2143 142.919 98.1309 142.849 98.0703 142.755C98.0097 142.661 97.9794 142.542 97.9794 142.397C97.9794 142.278 97.9998 142.176 98.0405 142.092C98.0812 142.007 98.138 141.937 98.2109 141.883C98.2839 141.829 98.3686 141.788 98.4652 141.759C98.5627 141.731 98.6679 141.713 98.7805 141.704C98.9027 141.695 99.0007 141.683 99.0746 141.67C99.1494 141.656 99.2034 141.636 99.2365 141.612C99.2696 141.586 99.2862 141.552 99.2862 141.511V141.505C99.2862 141.448 99.2644 141.405 99.2209 141.374C99.1773 141.344 99.1214 141.329 99.0533 141.329C98.9785 141.329 98.9174 141.346 98.87 141.379C98.8236 141.411 98.7957 141.461 98.7862 141.528H98.0646C98.0741 141.395 98.1162 141.273 98.1911 141.161C98.2668 141.049 98.3771 140.959 98.522 140.891C98.6669 140.823 98.8478 140.789 99.0646 140.789C99.2209 140.789 99.361 140.808 99.4851 140.845C99.6091 140.881 99.7147 140.931 99.8018 140.997C99.889 141.061 99.9553 141.137 100.001 141.224C100.047 141.31 100.07 141.404 100.07 141.505V142.999H99.3374V142.693H99.3203C99.2768 142.774 99.2237 142.84 99.1612 142.89C99.0997 142.94 99.0291 142.977 98.9496 142.999C98.871 143.022 98.7843 143.034 98.6896 143.034ZM98.9453 142.539C99.005 142.539 99.0608 142.527 99.1129 142.502C99.166 142.478 99.209 142.442 99.2422 142.396C99.2753 142.349 99.2919 142.293 99.2919 142.227V142.045C99.2711 142.053 99.2488 142.061 99.2251 142.069C99.2024 142.077 99.1778 142.084 99.1513 142.09C99.1257 142.097 99.0982 142.103 99.0689 142.109C99.0405 142.115 99.0107 142.12 98.9794 142.124C98.9188 142.134 98.8691 142.15 98.8303 142.171C98.7924 142.192 98.764 142.218 98.745 142.249C98.727 142.28 98.718 142.314 98.718 142.352C98.718 142.412 98.7393 142.459 98.782 142.491C98.8246 142.523 98.879 142.539 98.9453 142.539ZM100.445 142.999V140.818H101.229V141.596H101.365L101.831 140.818H102.729L102.03 141.92L102.735 142.999H101.826L101.405 142.323H101.229V142.999H100.445ZM103.453 143.818C103.364 143.818 103.278 143.811 103.196 143.796C103.115 143.783 103.043 143.765 102.982 143.741L103.152 143.184C103.217 143.207 103.275 143.222 103.328 143.228C103.382 143.235 103.428 143.231 103.466 143.217C103.505 143.203 103.533 143.176 103.55 143.136L103.567 143.096L102.8 140.818H103.618L103.971 142.329H103.993L104.351 140.818H105.175L104.38 143.181C104.34 143.302 104.282 143.409 104.206 143.505C104.132 143.602 104.033 143.678 103.911 143.734C103.789 143.79 103.636 143.818 103.453 143.818ZM105.301 142.34H106.04C106.04 142.395 106.064 142.44 106.111 142.475C106.159 142.51 106.221 142.528 106.296 142.528C106.371 142.528 106.432 142.508 106.479 142.47C106.527 142.43 106.551 142.379 106.551 142.318C106.551 142.279 106.542 142.245 106.522 142.215C106.502 142.185 106.474 142.161 106.439 142.144C106.404 142.127 106.364 142.119 106.319 142.119H106.046V141.659H106.319C106.386 141.659 106.44 141.642 106.482 141.61C106.525 141.578 106.546 141.537 106.546 141.488C106.546 141.431 106.525 141.385 106.483 141.349C106.442 141.313 106.389 141.295 106.324 141.295C106.26 141.295 106.207 141.31 106.165 141.339C106.123 141.368 106.103 141.407 106.103 141.454H105.364C105.364 141.314 105.406 141.195 105.489 141.096C105.572 140.997 105.684 140.921 105.824 140.869C105.964 140.816 106.12 140.789 106.29 140.789C106.485 140.789 106.653 140.813 106.793 140.86C106.933 140.908 107.041 140.977 107.115 141.069C107.19 141.161 107.228 141.274 107.228 141.409C107.228 141.519 107.187 141.615 107.107 141.694C107.026 141.773 106.908 141.829 106.75 141.863V141.886C106.844 141.891 106.931 141.913 107.012 141.953C107.093 141.992 107.159 142.049 107.209 142.123C107.259 142.197 107.284 142.288 107.284 142.397C107.284 142.534 107.242 142.65 107.157 142.745C107.072 142.841 106.956 142.914 106.807 142.964C106.658 143.014 106.488 143.039 106.296 143.039C106.108 143.039 105.941 143.014 105.793 142.964C105.645 142.913 105.528 142.836 105.441 142.732C105.354 142.628 105.307 142.498 105.301 142.34ZM108.328 141.999L108.936 140.818H109.675V142.999H108.936V141.812L108.328 142.999H107.589V140.818H108.328V141.999Z" fill="black"/>
<path d="M41.9034 6.18127H41.1023C41.0966 6.11498 41.0814 6.05485 41.0568 6.00087C41.0331 5.94689 41 5.90049 40.9574 5.86167C40.9157 5.82189 40.8651 5.79159 40.8054 5.77076C40.7457 5.74898 40.678 5.73809 40.6023 5.73809C40.4697 5.73809 40.3575 5.77028 40.2656 5.83468C40.1747 5.89907 40.1056 5.9914 40.0582 6.11167C40.0118 6.23193 39.9886 6.37634 39.9886 6.54491C39.9886 6.72294 40.0123 6.87208 40.0597 6.99235C40.108 7.11167 40.1776 7.20163 40.2685 7.26223C40.3594 7.32189 40.4688 7.35172 40.5966 7.35172C40.6695 7.35172 40.7348 7.34273 40.7926 7.32473C40.8504 7.3058 40.9006 7.27881 40.9432 7.24377C40.9858 7.20873 41.0204 7.16659 41.0469 7.11735C41.0743 7.06716 41.0928 7.01081 41.1023 6.94831L41.9034 6.954C41.8939 7.0771 41.8594 7.20258 41.7997 7.33042C41.7401 7.45731 41.6553 7.57473 41.5455 7.68269C41.4366 7.7897 41.3016 7.87587 41.1406 7.94121C40.9796 8.00655 40.7926 8.03922 40.5795 8.03922C40.3125 8.03922 40.0729 7.98193 39.8608 7.86735C39.6496 7.75277 39.4825 7.5842 39.3594 7.36167C39.2372 7.13913 39.1761 6.86687 39.1761 6.54491C39.1761 6.22104 39.2386 5.94831 39.3636 5.72672C39.4886 5.50419 39.6572 5.3361 39.8693 5.22246C40.0814 5.10788 40.3182 5.05059 40.5795 5.05059C40.7633 5.05059 40.9323 5.07568 41.0866 5.12587C41.241 5.17606 41.3764 5.24945 41.4929 5.34604C41.6094 5.44169 41.7031 5.55958 41.7741 5.69973C41.8452 5.83989 41.8883 6.0004 41.9034 6.18127ZM43.3242 8.03922C43.0875 8.03922 42.8848 7.99235 42.7163 7.8986C42.5477 7.8039 42.4184 7.67227 42.3285 7.50371C42.2385 7.3342 42.1935 7.13771 42.1935 6.91422C42.1935 6.69074 42.2385 6.49472 42.3285 6.32616C42.4184 6.15665 42.5477 6.02502 42.7163 5.93127C42.8848 5.83657 43.0875 5.78922 43.3242 5.78922C43.561 5.78922 43.7636 5.83657 43.9322 5.93127C44.1007 6.02502 44.23 6.15665 44.32 6.32616C44.4099 6.49472 44.4549 6.69074 44.4549 6.91422C44.4549 7.13771 44.4099 7.3342 44.32 7.50371C44.23 7.67227 44.1007 7.8039 43.9322 7.8986C43.7636 7.99235 43.561 8.03922 43.3242 8.03922ZM43.3299 7.45968C43.3962 7.45968 43.4535 7.43742 43.5018 7.39292C43.5501 7.34841 43.5875 7.28496 43.614 7.20258C43.6405 7.12019 43.6538 7.02218 43.6538 6.90854C43.6538 6.79396 43.6405 6.69595 43.614 6.61451C43.5875 6.53212 43.5501 6.46867 43.5018 6.42417C43.4535 6.37966 43.3962 6.35741 43.3299 6.35741C43.2598 6.35741 43.1997 6.37966 43.1495 6.42417C43.0993 6.46867 43.061 6.53212 43.0344 6.61451C43.0079 6.69595 42.9947 6.79396 42.9947 6.90854C42.9947 7.02218 43.0079 7.12019 43.0344 7.20258C43.061 7.28496 43.0993 7.34841 43.1495 7.39292C43.1997 7.43742 43.2598 7.45968 43.3299 7.45968ZM44.6879 7.99945L44.6822 7.40854H44.7504C44.793 7.40854 44.8304 7.39623 44.8626 7.37161C44.8957 7.34699 44.9237 7.30911 44.9464 7.25797C44.9701 7.20684 44.9885 7.14197 45.0018 7.06337C45.016 6.98477 45.025 6.8915 45.0288 6.78354L45.0629 5.81763H46.8583V7.99945L46.1197 7.99945V6.40286H45.756L45.7219 6.99377C45.7125 7.17937 45.686 7.33657 45.6424 7.46536C45.5998 7.59415 45.543 7.69784 45.4719 7.77644C45.4009 7.85409 45.3185 7.91091 45.2248 7.94689C45.131 7.98193 45.0278 7.99945 44.9151 7.99945H44.6879ZM48.4897 7.99945V6.40286H48.1942C48.0958 6.40286 48.0233 6.42559 47.9769 6.47104C47.9305 6.5165 47.9083 6.56195 47.9102 6.60741C47.9083 6.6557 47.9319 6.70116 47.9812 6.74377C48.0304 6.78544 48.1071 6.80627 48.2113 6.80627H48.7681V7.27786H48.2113C47.9982 7.27786 47.8136 7.24803 47.6573 7.18837C47.5011 7.12871 47.3808 7.04633 47.2965 6.94121C47.2122 6.8361 47.1706 6.71536 47.1715 6.579C47.1706 6.43127 47.2113 6.30011 47.2937 6.18553C47.377 6.07095 47.4954 5.98098 47.6488 5.91564C47.8031 5.8503 47.985 5.81763 48.1942 5.81763H49.217V7.99945H48.4897ZM47.1488 7.99945L47.7454 6.829H48.467L47.8704 7.99945H47.1488ZM49.5934 8.81763V5.81763H50.3718V6.19831H50.3888C50.4173 6.12445 50.4589 6.05674 50.5138 5.99519C50.5688 5.93269 50.637 5.88297 50.7184 5.84604C50.7998 5.80816 50.8945 5.78922 51.0025 5.78922C51.1464 5.78922 51.2833 5.82758 51.413 5.90428C51.5437 5.98098 51.6497 6.10172 51.7312 6.2665C51.8136 6.43127 51.8548 6.64528 51.8548 6.90854C51.8548 7.16044 51.8155 7.36924 51.7369 7.53496C51.6592 7.70068 51.555 7.82426 51.4244 7.9057C51.2946 7.98714 51.1521 8.02786 50.9968 8.02786C50.8945 8.02786 50.8031 8.01129 50.7227 7.97814C50.6431 7.94405 50.5749 7.89812 50.5181 7.84036C50.4622 7.78165 50.4192 7.71536 50.3888 7.6415H50.3775V8.81763H49.5934ZM50.3604 6.90854C50.3604 7.0146 50.3742 7.10646 50.4016 7.18411C50.43 7.26081 50.4698 7.32047 50.521 7.36309C50.573 7.40475 50.6351 7.42559 50.707 7.42559C50.779 7.42559 50.8401 7.40523 50.8903 7.36451C50.9414 7.32284 50.9802 7.26366 51.0067 7.18695C51.0342 7.1093 51.0479 7.0165 51.0479 6.90854C51.0479 6.80059 51.0342 6.70826 51.0067 6.63155C50.9802 6.5539 50.9414 6.49472 50.8903 6.454C50.8401 6.41233 50.779 6.3915 50.707 6.3915C50.6351 6.3915 50.573 6.41233 50.521 6.454C50.4698 6.49472 50.43 6.5539 50.4016 6.63155C50.3742 6.70826 50.3604 6.80059 50.3604 6.90854ZM52.9219 6.99945L53.5298 5.81763H54.2685V7.99945H53.5298V6.81195L52.9219 7.99945H52.1832V5.81763H52.9219V6.99945ZM55.4062 6.99945L56.0142 5.81763H56.7528V7.99945H56.0142V6.81195L55.4062 7.99945H54.6676V5.81763H55.4062V6.99945ZM55.9915 5.03354H56.4858C56.4848 5.2182 56.4143 5.36593 56.2741 5.47672C56.134 5.58657 55.9451 5.6415 55.7074 5.6415C55.4678 5.6415 55.2779 5.58657 55.1378 5.47672C54.9976 5.36593 54.928 5.2182 54.929 5.03354H55.4176C55.4167 5.0932 55.438 5.14812 55.4815 5.19831C55.526 5.24756 55.6013 5.27218 55.7074 5.27218C55.8087 5.27218 55.8812 5.24803 55.9247 5.19973C55.9683 5.15144 55.9905 5.09604 55.9915 5.03354Z" fill="black"/>
<path d="M41.9034 141.181H41.1023C41.0966 141.115 41.0814 141.055 41.0568 141.001C41.0331 140.947 41 140.9 40.9574 140.862C40.9157 140.822 40.8651 140.792 40.8054 140.771C40.7457 140.749 40.678 140.738 40.6023 140.738C40.4697 140.738 40.3575 140.77 40.2656 140.835C40.1747 140.899 40.1056 140.991 40.0582 141.112C40.0118 141.232 39.9886 141.376 39.9886 141.545C39.9886 141.723 40.0123 141.872 40.0597 141.992C40.108 142.112 40.1776 142.202 40.2685 142.262C40.3594 142.322 40.4688 142.352 40.5966 142.352C40.6695 142.352 40.7348 142.343 40.7926 142.325C40.8504 142.306 40.9006 142.279 40.9432 142.244C40.9858 142.209 41.0204 142.167 41.0469 142.117C41.0743 142.067 41.0928 142.011 41.1023 141.948L41.9034 141.954C41.8939 142.077 41.8594 142.203 41.7997 142.33C41.7401 142.457 41.6553 142.575 41.5455 142.683C41.4366 142.79 41.3016 142.876 41.1406 142.941C40.9796 143.007 40.7926 143.039 40.5795 143.039C40.3125 143.039 40.0729 142.982 39.8608 142.867C39.6496 142.753 39.4825 142.584 39.3594 142.362C39.2372 142.139 39.1761 141.867 39.1761 141.545C39.1761 141.221 39.2386 140.948 39.3636 140.727C39.4886 140.504 39.6572 140.336 39.8693 140.222C40.0814 140.108 40.3182 140.051 40.5795 140.051C40.7633 140.051 40.9323 140.076 41.0866 140.126C41.241 140.176 41.3764 140.249 41.4929 140.346C41.6094 140.442 41.7031 140.56 41.7741 140.7C41.8452 140.84 41.8883 141 41.9034 141.181ZM43.3242 143.039C43.0875 143.039 42.8848 142.992 42.7163 142.899C42.5477 142.804 42.4184 142.672 42.3285 142.504C42.2385 142.334 42.1935 142.138 42.1935 141.914C42.1935 141.691 42.2385 141.495 42.3285 141.326C42.4184 141.157 42.5477 141.025 42.7163 140.931C42.8848 140.837 43.0875 140.789 43.3242 140.789C43.561 140.789 43.7636 140.837 43.9322 140.931C44.1007 141.025 44.23 141.157 44.32 141.326C44.4099 141.495 44.4549 141.691 44.4549 141.914C44.4549 142.138 44.4099 142.334 44.32 142.504C44.23 142.672 44.1007 142.804 43.9322 142.899C43.7636 142.992 43.561 143.039 43.3242 143.039ZM43.3299 142.46C43.3962 142.46 43.4535 142.437 43.5018 142.393C43.5501 142.348 43.5875 142.285 43.614 142.203C43.6405 142.12 43.6538 142.022 43.6538 141.909C43.6538 141.794 43.6405 141.696 43.614 141.615C43.5875 141.532 43.5501 141.469 43.5018 141.424C43.4535 141.38 43.3962 141.357 43.3299 141.357C43.2598 141.357 43.1997 141.38 43.1495 141.424C43.0993 141.469 43.061 141.532 43.0344 141.615C43.0079 141.696 42.9947 141.794 42.9947 141.909C42.9947 142.022 43.0079 142.12 43.0344 142.203C43.061 142.285 43.0993 142.348 43.1495 142.393C43.1997 142.437 43.2598 142.46 43.3299 142.46ZM44.6879 142.999L44.6822 142.409H44.7504C44.793 142.409 44.8304 142.396 44.8626 142.372C44.8957 142.347 44.9237 142.309 44.9464 142.258C44.9701 142.207 44.9885 142.142 45.0018 142.063C45.016 141.985 45.025 141.891 45.0288 141.784L45.0629 140.818H46.8583V142.999H46.1197V141.403H45.756L45.7219 141.994C45.7125 142.179 45.686 142.337 45.6424 142.465C45.5998 142.594 45.543 142.698 45.4719 142.776C45.4009 142.854 45.3185 142.911 45.2248 142.947C45.131 142.982 45.0278 142.999 44.9151 142.999H44.6879ZM48.4897 142.999V141.403H48.1942C48.0958 141.403 48.0233 141.426 47.9769 141.471C47.9305 141.516 47.9083 141.562 47.9102 141.607C47.9083 141.656 47.9319 141.701 47.9812 141.744C48.0304 141.785 48.1071 141.806 48.2113 141.806H48.7681V142.278H48.2113C47.9982 142.278 47.8136 142.248 47.6573 142.188C47.5011 142.129 47.3808 142.046 47.2965 141.941C47.2122 141.836 47.1706 141.715 47.1715 141.579C47.1706 141.431 47.2113 141.3 47.2937 141.186C47.377 141.071 47.4954 140.981 47.6488 140.916C47.8031 140.85 47.985 140.818 48.1942 140.818H49.217V142.999H48.4897ZM47.1488 142.999L47.7454 141.829H48.467L47.8704 142.999H47.1488ZM49.5934 143.818V140.818H50.3718V141.198H50.3888C50.4173 141.124 50.4589 141.057 50.5138 140.995C50.5688 140.933 50.637 140.883 50.7184 140.846C50.7998 140.808 50.8945 140.789 51.0025 140.789C51.1464 140.789 51.2833 140.828 51.413 140.904C51.5437 140.981 51.6497 141.102 51.7312 141.266C51.8136 141.431 51.8548 141.645 51.8548 141.909C51.8548 142.16 51.8155 142.369 51.7369 142.535C51.6592 142.701 51.555 142.824 51.4244 142.906C51.2946 142.987 51.1521 143.028 50.9968 143.028C50.8945 143.028 50.8031 143.011 50.7227 142.978C50.6431 142.944 50.5749 142.898 50.5181 142.84C50.4622 142.782 50.4192 142.715 50.3888 142.641H50.3775V143.818H49.5934ZM50.3604 141.909C50.3604 142.015 50.3742 142.106 50.4016 142.184C50.43 142.261 50.4698 142.32 50.521 142.363C50.573 142.405 50.6351 142.426 50.707 142.426C50.779 142.426 50.8401 142.405 50.8903 142.365C50.9414 142.323 50.9802 142.264 51.0067 142.187C51.0342 142.109 51.0479 142.016 51.0479 141.909C51.0479 141.801 51.0342 141.708 51.0067 141.632C50.9802 141.554 50.9414 141.495 50.8903 141.454C50.8401 141.412 50.779 141.391 50.707 141.391C50.6351 141.391 50.573 141.412 50.521 141.454C50.4698 141.495 50.43 141.554 50.4016 141.632C50.3742 141.708 50.3604 141.801 50.3604 141.909ZM52.9219 141.999L53.5298 140.818H54.2685V142.999H53.5298V141.812L52.9219 142.999H52.1832V140.818H52.9219V141.999ZM55.4062 141.999L56.0142 140.818H56.7528V142.999H56.0142V141.812L55.4062 142.999H54.6676V140.818H55.4062V141.999ZM55.9915 140.034H56.4858C56.4848 140.218 56.4143 140.366 56.2741 140.477C56.134 140.587 55.9451 140.641 55.7074 140.641C55.4678 140.641 55.2779 140.587 55.1378 140.477C54.9976 140.366 54.928 140.218 54.929 140.034H55.4176C55.4167 140.093 55.438 140.148 55.4815 140.198C55.526 140.248 55.6013 140.272 55.7074 140.272C55.8087 140.272 55.8812 140.248 55.9247 140.2C55.9683 140.151 55.9905 140.096 55.9915 140.034Z" fill="black"/>
</svg>